<?xml version="1.0" encoding="utf-8"?>
<!-- Generator: Adobe Illustrator 24.0.2, SVG Export Plug-In . SVG Version: 6.00 Build 0)  -->
<svg version="1.1" id="Layer_1" xmlns="http://www.w3.org/2000/svg" xmlns:xlink="http://www.w3.org/1999/xlink" x="0px" y="0px"
	 viewBox="0 0 1080 1080" style="enable-background:new 0 0 1080 1080;" xml:space="preserve">
<style type="text/css">
	.st0{fill:#0189B1;}
	.st1{fill:#FEFEFE;}
	.st2{fill:#68DBF1;}
	.st3{fill:#FED542;}
	.st4{fill:#F4FBFE;}
	.st5{fill:#FE593F;}
	.st6{fill:#E5C13B;}
	.st7{fill:#E8F8FD;}
	.st8{fill:#EFFAFE;}
	.st9{fill:#F0FAFE;}
	.st10{fill:#EBF9FD;}
	.st11{fill:#E7F8FD;}
	.st12{fill:#FEE58B;}
	.st13{fill:#FEFDF9;}
	.st14{fill:#FED3CE;}
	.st15{fill:#BDE560;}
	.st16{fill:#FE5B42;}
	.st17{fill:#FE5A3F;}
	.st18{fill:#E6ACA3;}
	.st19{fill:#FEDA57;}
	.st20{fill:#FED850;}
	.st21{fill:#FED647;}
	.st22{fill:#FED84D;}
	.st23{fill:#FED749;}
	.st24{fill:#FED74B;}
	.st25{fill:#FEE796;}
	.st26{fill:#FEFAEE;}
	.st27{fill:#FEFAEA;}
</style>
<g>
	<g>
		<path class="st0" d="M525.9,967.8c-58.2-1-118.5-16.6-175.3-44.4c-17.4-8.5-34.7-17.9-50.7-30.6c-19.9-15.7-41.6-29.5-59.3-48
			c-41.6-43.4-75.9-91.3-97.7-148.3c-24.8-65.1-36.3-132.2-28.5-200.5c4.7-41.4,15.3-82.6,32.6-122.2c15.2-34.7,33.6-67.2,55.2-97.2
			c20.9-29,48.7-53,77.1-75.7c28.9-23.1,61.1-41.8,94.3-55.8c38.7-16.3,80.3-26.5,123.4-30.2c26.6-2.3,53.1-1.6,79.3-1.2
			c27.1,0.4,54.3,7.7,80.8,15.7c21.1,6.4,41.9,12.9,62.1,22.2c23.8,10.9,45.4,24.6,66.9,39.3c21.6,14.8,41.6,31.7,59.9,49.4
			c16.1,15.7,32.8,32.7,43.5,53.8c8.2,16,20.3,29.6,28.4,45.9c13,25.9,25.3,52,32.2,80.2c6.1,25,13.4,50.1,16,75.5
			c2.6,25.2,0.4,50.9-0.3,76.3c-1.1,38.2-12,74.1-24.2,110c-11.8,34.7-28.8,66-48.4,96.8c-24,37.9-54.8,67.7-89.2,95.8
			c-31.5,25.7-66,45.1-102.3,61.2C672,949,639.6,955,607.3,961.3C581.9,966.4,556.8,966.4,525.9,967.8z"/>
		<path class="st1" d="M933.3,518.4c14.7,226.4-163,399-355.3,415.8c-241.7,21.2-427.2-164-433.4-379.9
			c-6.4-223.3,158.7-400.5,378-409.7C745.4,135.2,924.3,304.7,933.3,518.4z"/>
		<path class="st2" d="M372,286c-1.1-16.7,7.1-23.6,23.4-23.6c120.2,0.1,240.3,0,360.5,0.1c17.9,0,24,5.8,24,23
			c0,147.9-0.2,295.9-0.4,443.8c-14.4-3.5-23-15.4-33.6-24.2c-9.1-7.5-16.9-16.6-25.4-24.9c-10.2-10.4-20.2-21.1-31.2-30.7
			c-20.4-15.1-36.3-34.9-54.9-51.9c-6.2-7.8-16.8-12.8-16.5-24.9c11.7-27.5,24.1-54.8,26.3-85.3c0.7-9.6,1.9-19.1,1-28.7
			c-0.5-5.5-2.1-11.5,4.2-15.2c22.3-5.2,45-1.7,67.5-2.5c21.8-0.7,23.4-1.7,23.6-22.9c0.2-23.2,0.3-46.3,0-69.5
			c-0.2-17.7-1.9-19.3-19.5-19.6c-44-0.8-88.1,1.3-132.1-1.1c-7.7-1.3-13.1-6.4-18.9-10.9c-54-41.2-114-49.3-178.7-31.8
			C385,286.9,378.6,291.1,372,286z"/>
		<path class="st2" d="M779.5,775.8c0.2,4.5,0.5,9,0.5,13.6c0.1,23.2-4.7,28.1-27.5,28.1c-117.8,0-235.6,0-353.5,0
			c-22.1,0-27.3-5-27.3-26.6c0-45.3,0.2-90.6,0.3-135.9c4.9-3.1,10-1.5,14.7,0.1c50.3,16.7,99.4,13.4,147.3-8.7
			c2.6-1.2,5.4-1.8,8.2-2c8.4,0.3,14.3,5.8,20.7,10.3c20.9,20.4,40.9,41.7,63.2,60.7c10.8,9.1,20.3,19.6,30.6,29.2
			c16.5,18.6,37,32.8,54.3,50.5c11.3,11.6,27.4,9.7,44.6-1.7C763.9,787.9,768.1,777,779.5,775.8z"/>
		<path class="st3" d="M545.4,646.2c-56.5,29.2-114.3,31.4-173.4,8.8c-59.5-28.5-100.2-73.2-115.9-138.1
			c-21.6-89.6,20.3-180,102.4-223.6c4.5-2.4,9-4.8,13.4-7.2c51.5-18.5,102.8-20.6,154.3,0.1c22.4,9,41.5,23,60.3,37.7
			c38.9,28.1,55.9,68.6,64.3,113.9c0.5,2.8-0.5,5.5-2.3,7.9c4.8,46.7-4.3,90.4-29.3,130.4c-7,26.4-29.6,39.8-47.7,56.8
			C564.5,639.5,556.9,647.1,545.4,646.2z"/>
		<path class="st3" d="M779.5,775.8c-7.1,7.1-12.6,16.1-21.6,21.1c-20,11-35.4,20-56.2-4c-14.7-16.9-32-31.5-48.2-47.2
			c-0.7-3,0.2-5.7,2.2-7.8c18.8-20.2,38.3-39.8,58.6-58.5c2.1-2,4.8-2.8,7.8-2.2c19.2,17.4,38.3,34.8,57.5,52.1
			C795.4,744.9,784.1,760.3,779.5,775.8z"/>
		<path class="st4" d="M648.6,445.7c-6.6-47.8-28.6-87.7-62-121.8c48.1-0.1,96.1,0.2,144.2-0.5c12.1-0.2,15.5,3.8,15.2,15.5
			c-0.7,30.5-0.7,61.1,0,91.6c0.3,12.2-4.4,15.7-15.9,15.5C702.9,445.3,675.7,445.7,648.6,445.7z"/>
		<path class="st3" d="M622.7,717.5c-20.6-19.9-41.1-39.8-61.7-59.7c23.2-17.6,46.9-34.6,64.1-58.8c2.6-3.6,6.4-6.7,11.5-2.9
			c18,17,36,34,54,51c-1.1,8.7-8.2,13.1-13.7,18.3C658.8,682.8,643,702.5,622.7,717.5z"/>
		<path class="st5" d="M622.7,717.5c19.6-26.4,44.9-47.3,68-70.4c11.7,8.7,22,18.8,31.3,30.1c-22.9,22.8-45.7,45.7-68.6,68.5
			C643.2,736.3,633,726.9,622.7,717.5z"/>
		<path class="st6" d="M636.7,596.2c-11.9,3.6-15.1,15.9-23.2,23.3c-16,14.8-30.1,32.2-52.4,38.3c-5.2-3.9-10.4-7.8-15.6-11.7
			c30.1-17.7,54.2-41.6,73.9-70.1C625.1,582.8,630.9,589.5,636.7,596.2z"/>
		<path class="st7" d="M706.8,558.3c-9.6,0-19.2-0.2-28.8,0c-6.6,0.1-10.7-1.6-10.8-9.4c0-7.2,2.8-10.3,10-10.2
			c19.2,0.2,38.4,0.1,57.6,0.1c7.8,0,11.2,3.6,11,11.5c-0.3,8.5-6.1,8-11.9,8C724.9,558.4,715.8,558.3,706.8,558.3z"/>
		<path class="st8" d="M710.7,504.7c-9,0-18.1-0.1-27.1,0c-6.7,0.1-8.8-3.4-8.6-9.6c0.2-6,3.5-7.7,8.7-7.7c18.1,0.1,36.2,0.1,54.2,0
			c5.9,0,7.8,3.2,7.7,8.6s-2.1,8.6-7.9,8.6C728.7,504.7,719.7,504.7,710.7,504.7z"/>
		<path class="st9" d="M535.3,766.1c-19.2,0-38.4-0.1-57.6,0c-6.5,0-10.9-1.2-10.6-9.3c0.3-7.2,4.6-8,10.2-8
			c39.5,0,79.1,0.1,118.6,0c6.6,0,10.8,1.4,10.6,9.3c-0.3,8.7-6.2,8-11.8,8C574.8,766.2,555,766.1,535.3,766.1z"/>
		<path class="st10" d="M449.1,714.8c-13,0-26-0.2-39.1,0.1c-7.3,0.1-11.9-1.5-11.7-10.2c0.2-7.8,4.1-9.4,10.8-9.4
			c27.2,0.1,54.3,0.1,81.5,0c6.5,0,10.8,1.5,11,9.3c0.2,8.7-4.5,10.4-11.7,10.3C476.2,714.6,462.7,714.8,449.1,714.8z"/>
		<path class="st11" d="M545.9,695.2c5.1,0,10.2,0.1,15.3,0c6.2-0.1,11.2,0.6,11.1,8.8c-0.1,7-3.1,10.6-10,10.7
			c-11.3,0.1-22.6,0.1-33.9,0c-6,0-9.6-2.8-9.7-9.2c-0.2-7.1,3.3-10.4,10.3-10.3C534.6,695.3,540.2,695.2,545.9,695.2z"/>
		<path class="st9" d="M427.2,748.9c6,4.4,22.7-8.8,22,9.2c-0.6,14.7-15,6.1-23.2,7.7c-6,1.2-12.4,0.1-18.7,0.2
			c-6.6,0.2-9.1-2.9-8.9-9.3c0.2-5.9,3.1-8,8.6-7.9C413.3,749,419.5,748.9,427.2,748.9z"/>
		<path class="st12" d="M449.3,643.9c-95.7-0.1-173.2-78.2-173.1-174.4c0.1-93.6,79.9-173.4,174-172.6
			c96.9,0.8,174.6,78.8,173.5,175.8C622.6,567.1,545.2,643.9,449.3,643.9z"/>
		<path class="st13" d="M303.1,470c-4.7-77.2,68.9-148.6,147.4-147.4c77.3,1.2,148.2,61.3,148,147.9c-0.1,85-65.4,148.9-149.3,148.4
			C362.4,618.4,299.9,547.3,303.1,470z"/>
		<path class="st14" d="M422.8,477.2c-24.7-27.5-18.4-59.8-14-91.8c1.8-2.3,4.2-4,7-4.2c26.1-1.6,52.3-3.6,78.4,0.8
			c-0.1,14.7-0.9,29.5,0,44.2c1.3,19.6-2,37.1-17.2,50.8C459,488.3,440.9,488.4,422.8,477.2z"/>
		<path class="st15" d="M494.3,507.2c14.3,9.1,28.8,17.8,42.7,27.4c7.5,5.2,12,31.1,7.3,37.7c-3.7,5.1-9.3,3-14.2,3
			c-50.9,0.1-101.9,0.3-152.8-0.2c-7.5-0.1-19.5,5.7-21.9-5.3c-2.7-12.1-4.3-26.5,9-35.5c13.6-9.2,27.4-18,41.1-26.9
			c7.3,9.1,1.6,18.6,0.4,27.7c-1.5,10.8,1,16.3,12.1,11.4c22.1-9.8,43.7-8.5,65.7,0.1c9.6,3.7,11.6-0.7,10.7-9.9
			C493.5,526.9,487.2,517,494.3,507.2z"/>
		<path class="st16" d="M494.2,382c-22.1,5.3-44.6,1.4-66.9,2.6c-6.1,0.3-12.3,0.6-18.4,0.9c-2-15.9,9.4-31.6,26.7-35
			c19.4-3.8,39.2-1.5,58.8-1.5c11,0,7,9.3,7.6,15.3C502.5,371.4,499.7,377.4,494.2,382z"/>
		<path class="st17" d="M494.3,507.2c2,12.2,4.1,24.5,6.1,36.7c1.4,8.6-0.6,14.1-10.6,9.4c-26.7-12.7-53.2-11.6-79.8,0.1
			c-9.9,4.3-12.1,0.1-10.3-9.2c2.2-12.2,3.9-24.5,5.8-36.8c1.1-0.7,2.2-1.5,3.3-2.2c12.8,1.4,20.3,11.8,30.2,18
			c8.4,5.3,14.9,5.7,23-0.6c8.9-6.8,17.3-14.7,28.7-17.5C491.9,505.9,493.1,506.5,494.3,507.2z"/>
		<path class="st14" d="M490.7,505.2c-9.4,10.8-22.6,16.6-33.3,25.8c-5.1,4.5-9.7,3.7-14.9-0.4c-11-8.7-22.4-16.9-33.7-25.3
			c1.1-8.3,6.5-14.4,10.3-21.4c20.6,14.1,41.2,17.1,61.6-0.2C485.9,489.9,489.7,496.9,490.7,505.2z"/>
		<path class="st18" d="M480.7,483.6c-12.1,22.8-45.7,23-61.6,0.2c1.2-2.2,2.5-4.4,3.7-6.6c18.1,3.1,36.2,3.9,54.2-0.2
			C478.2,479.2,479.5,481.4,480.7,483.6z"/>
		<path class="st19" d="M551.9,402.4c6.1,4.6,2,11.3,3.3,16.8c-0.5,0.6-1.1,1.1-1.6,1.7c-7.4,1.6-11.8,6.2-13.5,13.5
			c-0.6,0.5-1.1,1.1-1.7,1.6c-3.3,0.1-6.7,0.1-10,0.3c-5.7,0.3-9.6-1-9.9-8c-0.2-7.3,2.9-9.9,9.9-9.8c3.1,0,6.2-1.9,9.3-2.9
			C543.2,412,547.7,407.4,551.9,402.4z"/>
		<path class="st20" d="M347.5,470.1c0.7,12-1.3,21.3-16.9,17.2c-3-5.3-1.5-11-1.1-16.6c4.6-5.1,10.1-4.7,15.9-2.5
			C346.1,468.8,346.8,469.4,347.5,470.1z"/>
		<path class="st21" d="M555.2,419.2c7.4,0.3,18.2-4.6,16.7,9.9c-1.2,11.9-10.8,5.3-16.7,6.9c-0.6-0.7-1.2-1.3-1.8-2
			c-2.4-5.4-2.1-10.5,2.1-15L555.2,419.2z"/>
		<path class="st22" d="M330.8,436.4c15.3-3.9,17.4,5.1,16.7,16.9c-0.7,0.6-1.4,1.3-2.1,1.9c-5.7,2.2-11.2,2.6-15.8-2.4
			C329.2,447.3,327.4,441.6,330.8,436.4z"/>
		<path class="st23" d="M555.2,436c-2,5.7,4.1,15-5.8,16.9c-15.2,2.8-12.4-7.9-11-16.9l-0.2,0.3c5.7-4.7,11.5-4.7,17.3,0L555.2,436z
			"/>
		<path class="st22" d="M327.2,470.7c-6.7-1.2-17.1,3.8-16.3-9.8c0.7-12.4,10.5-6.2,16.4-7.9C332,458.9,331.8,464.8,327.2,470.7z"/>
		<path class="st24" d="M347.5,453.3c6.7,1,17.4-4.7,16.6,9.3c-0.8,12.5-10.2,6.7-16.5,7.4l0.3,0.2c-4.7-5.7-4.7-11.5,0-17.3
			L347.5,453.3z"/>
		<path class="st22" d="M551.9,402.4c1.6,11.2-3.8,14.8-14.2,13.2C535.5,403.7,540.4,399.5,551.9,402.4z"/>
		<path class="st25" d="M327.2,470.7c0-5.9,0-11.8,0-17.7c1.1-5.6-2.9-12.2,3.6-16.6c-0.1,5.6-0.1,11.3-0.2,16.9
			c4.7,5.7,4.4,11.4,0,17.2c0,5.6,0,11.2,0,16.8C324.6,482.7,328.1,476.3,327.2,470.7z"/>
		<path class="st26" d="M555.5,436.3c-5.8,0-11.5,0-17.3,0c-3.7-15.2,3.9-19.2,17.3-17.3C555.5,424.8,555.5,430.5,555.5,436.3z"/>
		<path class="st27" d="M330.6,470.4c0-5.7,0-11.4,0-17.2c5.7-0.1,11.4-0.1,17.2-0.2c0,5.8,0,11.5,0,17.3
			C342.1,470.4,336.3,470.4,330.6,470.4z"/>
	</g>
</g>
</svg>
