<?xml version="1.0" encoding="utf-8"?>
<!-- Generator: Adobe Illustrator 24.0.2, SVG Export Plug-In . SVG Version: 6.00 Build 0)  -->
<svg version="1.1" id="Layer_1" xmlns="http://www.w3.org/2000/svg" xmlns:xlink="http://www.w3.org/1999/xlink" x="0px" y="0px"
	 viewBox="0 0 1080 1080" style="enable-background:new 0 0 1080 1080;" xml:space="preserve">
<style type="text/css">
	.st0{fill:#FDFDFD;}
	.st1{fill:#FDCDB6;}
	.st2{fill:#B27330;}
	.st3{fill:#558AFE;}
	.st4{fill:#576E81;}
	.st5{fill:#4D6476;}
	.st6{fill:#EE603D;}
</style>
<g>
	<path class="st0" d="M670.4,18.3c90,0,180,0.3,270.1-0.3c11.6-0.1,14.3,2.6,14.3,14.3c-0.5,138.3-0.3,276.6-0.3,414.8
		c-6.2-5.5-7.8-13.6-8.7-20.8c-2.6-22.1-3.7-44.4-5.2-66.6c-1.1-16-0.8-33.7-10.7-46.1c-17.8-22.1-38.6-41.8-58.1-62.5
		c-24.2-31.9-52.1-58.6-92.1-70.1c-18.5-5.3-36.2-13-54.3-19.6c0-24.7,0.1-49.3,0.1-74c4.5-23.1-4-39.3-24.9-50.1
		C690.1,31.9,680.5,24.7,670.4,18.3z"/>
	<path class="st1" d="M871.7,251.2c19.5,20.7,40.4,40.4,58.1,62.5c10,12.4,9.6,30.1,10.7,46.1c1.5,22.2,2.7,44.5,5.2,66.6
		c0.8,7.2,2.4,15.3,8.7,20.8c0,10.9,0,21.8,0,32.6c-60.4-1.3-45.8,11.7-66.1-48.5c-3.4-10.1-6.6-20.4-8.8-30.8
		c-6.6-31.6-30.7-43-57.7-51.4c-9.1-11.6-9-21.5,1.2-33.6C840.3,295,855.6,272.7,871.7,251.2z"/>
	<path class="st2" d="M670.4,18.3c10,6.4,19.6,13.6,30.2,19c20.8,10.8,29.4,27.1,24.9,50.1c-32.4,0.7-64.9,1.3-97.4,2
		c-3.8-29-3.1-56.2,28.4-71.1C661.1,18.3,665.8,18.3,670.4,18.3z"/>
	<path class="st3" d="M871.7,251.2c-16.1,21.5-31.4,43.8-48.7,64.3c-10.2,12.1-10.3,22.1-1.2,33.6c-6.2,37.4-7,75.7-16.8,112.6
		c-58.9,0.1-117.8,0.1-176.7,0.2c-10.7-37.8-9.2-77.7-18.6-116.6c-14.9,7.3-17,25.5-31.5,31c-19.1-23.3-38.8-46.2-61.7-65.8
		c17.7-39.7,38.8-76.5,77.6-99.9c15.1-9.1,29.4-19.5,44.1-29.3c15.7,12.8,33.1,18.9,53.3,13c17-5,23.7-20.7,33.9-32.9
		c18.1,6.6,35.9,14.3,54.3,19.6C819.6,192.6,847.6,219.2,871.7,251.2z"/>
	<path class="st4" d="M628.3,461.9c58.9-0.1,117.8-0.1,176.7-0.2c8.4,49,9.8,98.7,14.1,148c12.1,138.2,23.4,276.5,34.7,414.9
		c0.7,8.3,9.3,23.5-8.8,21.9c-14.2-1.3-35.6,13.3-41.9-13.9c-13.2-57.4-26.4-114.7-39.7-172c-12.1-52-24.2-104.1-36.5-156
		c-1.4-5.8,1.6-15.4-9.9-14.8c6-27.1-1.5-51.5-15.9-74c-15.1-23.7-37.3-41.2-56.4-61.5c-5.6-5.9-11.6-10.3-20.2-9.1
		C625.8,517.4,627,489.6,628.3,461.9z"/>
	<path class="st4" d="M282.3,516.2c-3.4,118.7-6.7,237.4-10.2,356.1c-1.5,51.2-3.7,102.4-4.5,153.6c-0.3,17-5.8,22.2-23.2,21.8
		c-44.8-0.9-44-0.1-49.4-45.3c-12-101.6-25-203.2-38-304.7c-3.3-25.7-12.1-49.5-26.7-71.2C107.9,593,98.9,556,103.7,515.9
		c17.5,0,35,0,52.5,0c2.3,12.9,5,25.7,6.8,38.6c4.8,33.7,7.4,35.4,42,32.7c9.8-0.8,13.2-4.1,13.9-13.7c1.3-19.2,3.9-38.2,6-57.4
		C244.1,516.1,263.2,516.2,282.3,516.2z"/>
	<path class="st5" d="M624.5,545.1c8.6-1.2,14.6,3.2,20.2,9.1c19.1,20.2,41.3,37.7,56.4,61.5c14.4,22.5,21.9,46.9,15.9,74
		c-4.2,9.9-7.6,20.3-12.7,29.7c-51,94.9-81,197-103.8,301.6c-5.3,24.2-25.6,34.3-49.1,26c-10.2-3.6-6.3-11.4-5.8-17.4
		c9.3-108.6,9.6-218.2,40.5-324.3C601.5,652.7,611.9,598.6,624.5,545.1z"/>
	<path class="st6" d="M282.3,516.2c-19.1,0-38.2-0.1-57.3-0.1c6.9-43.2-4-89.8,24.3-129.1c5.6-7.8,2.4-12.3-6.2-15.2
		c-31.3-10.5-61.2-25-93.7-31.9c14.2-67.4,49.8-115.3,119.6-132.5c8.2-2,16-5.4,24.1-8.2c2-0.9,4-1.7,6-2.6c1.1,0.1,2.2,0.2,3.3,0.3
		c3.1,32.1,16.2,46.4,45.9,50.1c5.6,59.7-1.8,117-27.7,172C305.7,450.3,294.9,483.7,282.3,516.2z"/>
	<path class="st1" d="M149.3,339.9c32.5,6.9,62.5,21.4,93.7,31.9c8.6,2.9,11.8,7.3,6.2,15.2c-28.2,39.3-17.3,85.9-24.3,129.1
		c-2.1,19.1-4.7,38.2-6,57.4c-0.7,9.6-4.1,12.9-13.9,13.7c-34.7,2.7-37.2,1-42-32.7c-1.8-12.9-4.5-25.7-6.8-38.6
		c-5.3-45.5-11.1-91-21.6-135.6C135.7,365.4,138.3,351.1,149.3,339.9z"/>
	<path class="st1" d="M516.5,310.6c23,19.7,42.6,42.5,61.7,65.8c-5.9,17.9-21.4,29.8-29.2,46.6c-3.2,6.8-10.5,5.4-16.6,5.5
		c-39.5,0-79-0.5-118.4,0.3c-14.6,0.3-18.3-5.3-18.4-19c-0.4-35.3-0.9-35.2,32.5-46.9c17.5-6.1,34.4-14.3,52.2-18.5
		C499.7,339.7,501.1,318.1,516.5,310.6z"/>
	<path class="st1" d="M725.3,161.5c-10.2,12.1-16.9,27.9-33.9,32.9c-20.2,6-37.6-0.2-53.3-13c-17.8-29.1-7-61.2-10-91.9
		c32.5-0.7,64.9-1.3,97.4-2C725.4,112.2,725.4,136.8,725.3,161.5z"/>
	<path class="st1" d="M348.2,246.9c-29.7-3.6-42.8-17.9-45.9-50.1c-1.2-36.7,24-54.6,50.9-71.3c26.3,18.4,43,46.1,65.8,67.9
		C399.1,216.1,385,246.6,348.2,246.9z"/>
	<path class="st2" d="M419.1,193.4c-22.8-21.8-39.5-49.5-65.8-67.9c5.5-21.9,23.1-38.1,42.5-38.1c23.4,0.1,34.5,14,38.5,35.5
		C439,148.6,452.8,176.1,419.1,193.4z"/>
	<path class="st6" d="M134.6,380.2c10.6,44.7,16.3,90.1,21.6,135.6c-17.5,0-35,0-52.5,0C94.7,466.2,116.1,423.6,134.6,380.2z"/>
	<path class="st1" d="M299,196.5c-2,0.9-4,1.7-6,2.6C295,198.3,297,197.4,299,196.5z"/>
</g>
</svg>
