<?xml version="1.0" encoding="utf-8"?>
<!-- Generator: Adobe Illustrator 24.0.2, SVG Export Plug-In . SVG Version: 6.00 Build 0)  -->
<svg version="1.1" id="Layer_1" xmlns="http://www.w3.org/2000/svg" xmlns:xlink="http://www.w3.org/1999/xlink" x="0px" y="0px"
	 viewBox="0 0 1080 1080" style="enable-background:new 0 0 1080 1080;" xml:space="preserve">
<style type="text/css">
	.st0{fill:#4B2746;}
	.st1{fill:#613D5C;}
	.st2{fill:#FEFEFE;}
	.st3{fill:#F1EEF0;}
	.st4{fill:#DEE6F3;}
	.st5{fill:#4C2846;}
	.st6{fill:#6B77E7;}
	.st7{fill:#969EEE;}
	.st8{fill:#79303A;}
	.st9{fill:#8D8DD0;}
	.st10{fill:#EFF6FE;}
	.st11{fill:#FE641A;}
	.st12{fill:#EF3800;}
	.st13{fill:#FEBEAA;}
	.st14{fill:#FEE0B9;}
</style>
<g>
	<g>
		<path class="st0" d="M1039.9,18.7c9.9,13.1,20.1,26.3,11.7,44c-8.7,18.6-25.7,18.1-42.5,17.6c-5.5-0.1-11,0.5-16.5,0.8
			c-8.7,7-19.1,6.8-29.3,6.8c-133.1,0.2-266.3,0.2-399.4,0c-8.7,0-17.4-0.2-25.5-4c-16-17.7-18-40.1-5.9-65.2
			C701.6,18.7,870.8,18.7,1039.9,18.7z"/>
		<path class="st1" d="M532.5,18.7c2.2,20.2-4.6,41.2,4.9,60.8c-1.9,2.6-4.3,4.5-7.3,5.7c-6,2.3-12.3,2.7-18.6,2.7
			c-143.3,0-286.6,0.9-429.8-0.4c-10-0.3-19.9-0.1-29.9-0.4c-17.8-0.6-31.2-7-36.1-25.6c0-7.9,0-15.8,0-23.7
			c2.5-10.2,8.8-16.5,19-19C200.5,18.7,366.5,18.7,532.5,18.7z"/>
		<path class="st1" d="M532.4,569c-88.3,0.4-176.6,0.8-264.8,1.1c-70.2,0.2-140.4-0.3-210.5,0.3c-18.1,0.2-32.5-3.9-41.5-20.6
			c0-7.9,0-15.8,0-23.7c14.1-29,41.4-24.6,66.3-26c98.6-0.4,197.2-1.8,295.7,0.6c3,0.2,6,0.7,9,1.3c39,7,78.4,1.8,117.6,3.2
			c30.6,1.1,32.9,2.9,35.2,33.7C539.7,549.5,540.7,560.4,532.4,569z"/>
		<path class="st2" d="M77.3,507.9c-21.5,3-45.6-3-61.7,18.2c0-154.9,0-309.8,0-464.8C30.8,84.5,55.2,79,77.2,80.9
			c8.6,8.9,7.6,20.4,7.7,31.3C85,233.6,85,355,84.9,476.4C84.9,487.5,84.9,498.6,77.3,507.9z"/>
		<path class="st3" d="M34.5,18.7c-6.3,6.3-12.6,12.6-19,19C12,21.4,18.3,15.1,34.5,18.7z"/>
		<path class="st4" d="M532.4,80.9c1.6-0.5,3.3-1,4.9-1.5c140.8,0.3,281.5,0.5,422.3,0.8c11,0,22,0.5,33,0.8
			c0.1,141.9,0.1,283.8,0.2,425.7c-4.4,5.5-10.6,6.7-17,6.7c-93.5-0.2-186.9,2.2-280.4-1.2c-12.5-4.2-12.1-15-12.6-25.1
			c-3.3-75.8-36.6-129.7-111.3-153.8c-5.2-1.7-10.5-3.6-12.5-9.5c-0.2-10.4,9.2-11.6,15.4-15.8c30.8-20.9,50.5-48.3,45.4-87.2
			c-5.2-39.4-30.9-64-73.1-73c-7-1.5-14.1-2.5-17.9-9.8C524.9,118.7,521.1,99.3,532.4,80.9z"/>
		<path class="st5" d="M532.4,569c0.1-9.6,0.1-19.2,0.2-28.8c5.6-35,5.7-36.2,42.1-34.9c148.3,5.4,296.5,3.9,444.8,4.2
			c4,0,7.9,0,11.6,1.5c18.4,3.4,24,16,22.8,32.8c-1.3,16.9-12.7,24.4-27.9,27.1c-5.4,1-11,0.9-16.5,0.9c-152.2,0-304.3,0-456.5,0
			C546.2,571.9,538.9,573.1,532.4,569z"/>
		<path class="st6" d="M251.3,811.8c37.7,11.9,73.8,25.9,99.2,59.3c20.3,26.7,30.6,56.5,33.1,89.3c1.6,20.7-10.7,35.4-31.6,35.6
			c-40.9,0.5-81.9-0.5-122.8-0.8c-5.3-5.3-7.1-12.1-7.2-19.3c-0.8-49.3-1-98.6,0.1-148c0.1-5.5,1.5-10.8,4.5-15.6
			C234.7,804.4,242.9,803.4,251.3,811.8z"/>
		<path class="st7" d="M840.7,995.7c-39.4,0.1-78.9,0.5-118.3,0.2c-24.7-0.2-33.9-10-34.1-34.7c-0.5-57.8,38.7-115.3,93.3-136
			c13.2-5,26.9-8.7,40.4-12.9c4.8-6.2,10.5-5.5,16.6-2.2c8.7,7.4,9.3,17.7,9.4,27.9c0.6,44.6,0.4,89.1,0.1,133.7
			C848,980.3,846.9,988.8,840.7,995.7z"/>
		<path class="st6" d="M840.7,995.7c0-52.6,0-105.3-0.2-157.9c0-8.5,1.7-17.4-4.3-25c0.6-2.8,2.3-4.7,5-5.7c6.8-1.6,13.3-2.1,17.5,5
			c55.6,13.7,99.8,41.8,122.2,97.2c1.5,3.6,2.8,7.3,4,11.1c18.9,58.7,6.5,76-54.4,75.9C900.6,996.3,870.7,995.9,840.7,995.7z"/>
		<path class="st7" d="M229.1,812.7c0,60.8,0,121.7,0,182.5c-38.5,0.3-77,0.9-115.5,0.6c-27.3-0.2-39.6-15.5-35.3-43
			c10.7-68.3,46.8-115,115-134.2c5.9-1.7,11.5-4.6,17.2-7c3.8-6,9.3-5.6,15.1-4.1C227.8,808.5,229,810.2,229.1,812.7z"/>
		<path class="st6" d="M556.6,876.7c71.4,7.7,131.6,74.1,131.6,145.1c0,22.2-12.3,35.2-35,35.3c-38.7,0.2-77.4-0.4-116.1-0.6
			c-6.2-6.1-6.5-14-6.5-21.9c-0.2-45.4-0.7-90.8,0.2-136.2C531.3,875.5,535.9,872.2,556.6,876.7z"/>
		<path class="st7" d="M532.8,1056.6c-38.6,0.2-77.2,0.8-115.8,0.5c-22.7-0.2-36.8-16.2-34.8-37.9c7.2-76.9,55.9-129.8,131.3-142.6
			c3.7-3.5,8.2-4.1,13-3.3c5,1.5,8.3,4.5,8.2,10C533.8,941.1,537.2,998.9,532.8,1056.6z"/>
		<path class="st0" d="M532.6,693c45.9-2.2,84.4,28.6,93.5,74.9c8.9,45.5-19.7,88.7-69.6,105c-8.9,1.8-17.8,4.5-26.2-1.6
			c-4.8-6.8-5.2-14.7-5.2-22.6c-0.3-43.9-0.4-87.8,0.1-131.7C525.2,708.4,525.6,699.6,532.6,693z"/>
		<path class="st0" d="M251.3,811.8c-7.4,0.3-14.8,0.5-22.2,0.8l-0.2-2c-6.3-6.9-7.3-15.4-7.4-24.1c-0.5-42.3-0.9-84.6,0.1-126.9
			c0.6-25.8,4.6-28.3,31.9-24.9c41,10,69,44.8,69.7,86.6C324,763.6,295.2,799.7,251.3,811.8z"/>
		<path class="st1" d="M840.9,810.8c-1.5,0.7-3.1,1.3-4.6,2c-4.8-0.2-9.5-0.4-14.3-0.6c-49.1-12.9-79.2-52.8-73.9-98
			c5.8-49.1,41.3-80.8,92.8-82.8c6.9,6.6,7.1,15.4,7.2,24c0.5,43.7,0.4,87.5,0,131.2C848,795.3,847,803.8,840.9,810.8z"/>
		<path class="st1" d="M253.5,634.8c-19-2.2-25.6,5.2-25,25.1c1.5,50.2,0.5,100.5,0.4,150.8c-6.1,0.3-12.3,0.6-18.4,0.9
			c-49.7-15-78.3-56.8-70.6-102.9c8.1-48.2,50.3-81,100.5-78.2C245.2,630.7,250.1,630.7,253.5,634.8z"/>
		<path class="st0" d="M840.9,810.8c0-59.8,0-119.6,0-179.3c44.9,0.5,83.9,34.2,89.6,77.3c6.5,49.2-21.9,90.1-71.7,103.4
			C852.8,811.7,846.8,811.2,840.9,810.8z"/>
		<path class="st1" d="M532.6,693c0,59.5,0.1,118.9,0.1,178.4c-1.9,4.9-7.5,2.4-10.3,5.3c-3,0-6,0-8.9,0c-4.4-9-14.4-8.5-21.6-12.5
			c-36.7-20.3-55.3-61.1-45.5-101.8C456.2,720.9,489.3,694.4,532.6,693z"/>
		<path class="st8" d="M1031.2,511.1c-151.9,0.3-303.8,1.1-455.7,0.5c-22.8-0.1-41,0.5-42.9,28.7c3.4-21.9-4.7-29.5-27.9-29
			c-39.7,0.8-79.6,3.8-119.2-1.8c6.1-11.2,17.2-9.6,26.9-9.7c39.8-0.3,79.7-1.1,119.5,0.3c43.3-1.2,86.5-0.4,129.8-0.4
			c9.4,0,19.1-0.1,26.7,7.1c101.5,0,202.9,0,304.4,0C1005.3,510.6,1019.1,503.8,1031.2,511.1z"/>
		<path class="st9" d="M522.4,876.7c2-4.5,6.5-4.3,10.3-5.3c7.9,0.5,15.9,1,23.8,1.5c-0.3,1.3-0.3,2.6,0.1,3.8
			c-15.4-1.8-20.1,5.2-19.8,20.3c0.8,53.2,0.4,106.3,0.4,159.5l-2.2,0.4l-2.2-0.4c-0.1-52.5,0-105-0.4-157.4
			C532.3,890.6,536.7,879.2,522.4,876.7z"/>
		<path class="st10" d="M532.4,80.9c0,20.1-0.1,40.1-0.1,60.2c-0.7,0.9-1.3,1.9-2,2.9c-16.4,7.3-34.8,8.9-49.2,22
			c-46.2,42.1-41.6,104.5,10.6,138.8c8,5.3,26.7,7.6,12.2,24.9c-41.8,16.9-79.3,38.5-99.8,82c-10.7,22.7-14.2,46.6-17.1,70.9
			c-1,8.6,0.2,17.5-4.9,25.2c-101.6,2.3-203.3,2.2-304.9,0.1c0-142.3-0.1-284.6-0.1-427C228.9,80.9,380.7,80.9,532.4,80.9z"/>
		<path class="st11" d="M382.2,507.8c-2.8-53.8,7.4-103.3,48-142.4c20.8-20,45.6-33.1,73.8-39.5c9.9-4.4,19.2-12,31.2-6.4
			c2.7,1.6,4.2,3.9,4.7,6.9c0.2,51.3,0,102.6-0.1,153.9c0,9.5-0.3,19.1-6.8,27c-49.1,0.7-98.3,1.4-147.4,2.1
			C384.5,508.8,383.4,508.2,382.2,507.8z"/>
		<path class="st12" d="M533,507.4c-0.1-53.9-0.2-107.9-0.4-161.8c0-7.9-0.2-15.7,4.8-22.4c7.6-8.1,15.2-7.3,23-0.3
			c94.8,31.4,128.6,79.9,128,183.9C636.6,507,584.8,507.2,533,507.4z"/>
		<path class="st13" d="M560.4,322.9c-7.7,0.1-15.3,0.2-23,0.3c-1.7-0.5-3.3-0.9-5-1.4c-6.5-6.8-7.2-15.4-7.3-24.1
			c-0.4-43.9-0.4-87.7,0-131.6c0.1-8.7,1.1-17.3,7.4-24.1l-0.2-0.9c59.4-2.2,84.8,39.1,93.8,76.1c7.5,30.7-12.1,84-60.5,101.1
			C563.6,319.1,562.1,321.4,560.4,322.9z"/>
		<path class="st14" d="M532.5,142c0,59.9-0.1,119.9-0.1,179.8c-9.5,1.4-18.9,2.8-28.4,4.2c5.2-13.1-7.5-11.4-12.8-14.4
			c-37.3-20.9-54.7-60.3-44.3-102.1C457.2,168,489.4,142.7,532.5,142z"/>
	</g>
</g>
</svg>
