<?xml version="1.0" encoding="utf-8"?>
<!-- Generator: Adobe Illustrator 24.0.2, SVG Export Plug-In . SVG Version: 6.00 Build 0)  -->
<svg version="1.1" id="Layer_1" xmlns="http://www.w3.org/2000/svg" xmlns:xlink="http://www.w3.org/1999/xlink" x="0px" y="0px"
	 viewBox="0 0 1080 1080" style="enable-background:new 0 0 1080 1080;" xml:space="preserve">
<style type="text/css">
	.st0{fill:#FEC94F;}
	.st1{fill:#FEFEFE;}
	.st2{fill:#FED36E;}
	.st3{fill:#FDD097;}
	.st4{fill:#666666;}
	.st5{fill:#16BCB0;}
	.st6{fill:#22D0C2;}
	.st7{fill:#22CFC2;}
	.st8{fill:#EFB97E;}
	.st9{fill:#FDFDFD;}
	.st10{fill:#C7C9CB;}
	.st11{fill:#F0F0F0;}
	.st12{fill:#EAEEEF;}
	.st13{fill:#ECF0F1;}
	.st14{fill:#D1CCBC;}
	.st15{fill:#F9B52F;}
	.st16{fill:#F0B431;}
	.st17{fill:#C0B489;}
	.st18{fill:#EFD69F;}
	.st19{fill:#77726B;}
	.st20{fill:#D5C9AC;}
	.st21{fill:#E5B841;}
	.st22{fill:#15BCB0;}
</style>
<g>
	<g>
		<path class="st0" d="M502.6,38.5c12,0,24,0,35.9,0c12,4.1,24,4.1,35.9,0c12,0,24,0,35.9,0c16.5,4.5,33.5,4.1,50.3,5.8
			c85.3,8.4,155.7,49.8,219.2,103.2c60.9,51.2,107.1,114.2,138.6,188.2c17.5,41.1,22,83.8,25.7,127.2c0.4,4.2-0.7,8.6,2.6,12.1
			c0,12,0,24,0,35.9c-4.1,12-4.1,24,0,35.9c0,13.7,0,27.4,0,41.1c-4.1,12.1-4.5,24.8-5.1,37.4c-3.4,63.3-29.1,118.4-62.4,170.6
			c-6.4,10-13.5,20.2-27.6,20.1c-3.5-1-6.8-2.9-7.4-6.4c-8-50.4-43.9-84.2-73.6-121c-14.9-18.4-25.9-40.2-45.1-55.1
			c-18-20.5-38.3-38.9-54.4-61.2c-7.9-10.9-19.7-15.9-32-20.1c-26.6-9.1-53.7-16.9-79.5-28.1c-11.9-0.6-21.3-7.6-31.5-12.5
			c-10-5-15.7-13.7-20.5-23.3c-6.5-8.9-9.6-18.9-9.9-29.9c11.6-36.6,33-68.5,52-101c14.9-25.5,18.8-49.7,14.7-77.1
			c-0.6-2.5-2.3-5.1-2-7.3c8.4-52.2-25.1-79-63-102.4c-33.8-20.9-69-19-101.3,1.8c-30.7,19.8-56.8,44.7-46.9,87.6
			c1.5,6.7,2.1,13.4,0.4,20.2c-9.6,23.6-6.7,45.5,5.7,67.8c20.2,36.2,42.7,71.2,57.5,110.3c-0.3,10.9-3.4,20.9-9.8,29.8
			c-4.7,9.6-10.5,18.3-20.3,23.4c-10.3,4.5-19.5,11.9-31.4,12.5c-7.7,1.3-13.6,7.1-21.2,8.3C368.9,542.4,327,583.2,290,631
			c-1.3,2.1-2.9,3.9-4.7,5.5c-41.4,52.6-93.9,97.4-115.3,164.1c-1.6,4.9-3.8,9.5-9.2,11.4c-15.8,2.2-23.4-9.1-30.1-19.8
			c-39.1-62.7-63.2-129.7-65.6-204.8c-1.4-46.2-1.1-92.1,1.6-138.1c4.7-81.5,38.5-152,85.7-216.1c58-78.8,133.2-136.5,224.7-172.6
			c36.5-14.4,74.9-15.6,113-19.5C494.6,40.7,499.1,41.8,502.6,38.5z"/>
		<path class="st1" d="M1046.9,475c-9.5-16.6-8.5-35.7-12.7-53.5c-47-199.8-202.4-343.7-407.9-377.4c-5.6-0.9-12.3,1.2-15.9-5.6
			c140.4,0,280.7,0.2,421.1-0.3c12.8,0,15.8,2.9,15.7,15.7C1046.7,194.3,1046.9,334.7,1046.9,475z"/>
		<path class="st2" d="M574.5,38.5c-12,7.5-24,7.5-35.9,0C550.5,38.5,562.5,38.5,574.5,38.5z"/>
		<path class="st2" d="M1046.9,546.9c-7.5-12-7.5-24,0-35.9C1046.9,522.9,1046.9,534.9,1046.9,546.9z"/>
		<path class="st3" d="M670.9,279.1c11.3,27.7,8.7,52.4-8.6,78.4c-21.4,32.4-38.3,67.9-57.1,102c-7,28.1-21.8,40.4-48.7,40.4
			s-41.8-12.3-48.8-40.4c-24.8-35.2-38.6-76.6-64.3-111.4c-13.5-18.2-10.1-55.8,3.4-69.8c5.2-2.8,9.4-1,13,3.1
			c4,6.1,0.7,13.4,3,19.8c-0.7-3.3-1-6.6-0.7-10c2-34.2,1.9-33.9,35.4-28.5c27.5,4.4,55,3.9,79.6-10.2c51.8-29.6,61.9-12.8,71,38.2
			C653.2,282.1,658,272.8,670.9,279.1z"/>
		<path class="st4" d="M670.9,279.1c-17.6,4.4-17.2,20.8-22.3,35.5c-6.7-18.2-15-34.3-18.1-51.2c-3.7-20.1-10-21.7-26.8-11.9
			c-50.8,29.6-81.1,32.4-131.7,14.5c-4.5,9.1,1.1,20.5-5.9,29c-9.9,3-5.3-7.5-9.3-10c-3.3-2.2-6.6-4.4-10-6.7
			c-23.5-61,22-125.1,93.5-132.2c31.5-3.1,59.3,4.2,81.3,28.3c1.2,1.3,2.1,3.2,3.5,3.6C676.8,195.5,672.9,237.7,670.9,279.1z"/>
		<path class="st5" d="M282,628.8c-5.9,12.7-7.1,26.1-7,39.9c0.3,70.1-0.3,140.2,0.4,210.3c0.2,18-2.5,33.4-17.6,45.8
			c-34.1-30.9-63-66.6-91.7-102.4c-2.4-3-2.1-8.1-3-12.2c-4.4-14.7-1.7-28.4,6.3-41.2C201.6,717.9,239.3,671.3,282,628.8z"/>
		<path class="st5" d="M950.1,814.1c-23.9,34.2-49.7,67-79.7,96.1c-5.2,5.1-11.9,16.5-16.6,12.7c-7.5-6-16.7-12.9-16.4-26.6
			c1.1-41.8,0.4-83.7,0.4-125.5c0-34.2-0.3-68.3,0.1-102.5c0.1-12.2-1.6-23.7-6.7-34.7c-1.6-1.1-2.1-2.2-1.6-3.3s1.1-1.6,1.6-1.6
			c40.7,41.4,76.9,86.3,109,134.7C950.9,779.3,953.8,795.8,950.1,814.1z"/>
		<path class="st5" d="M831.3,628.6c0,1.7,0,3.3-0.1,5c-5.3-3.1-10.5-6.1-15.8-9.2c-48-6.8-96.3-1.2-144.4-3.1
			c-9.3-0.4-18.7,1-27.8-2.1c-14.2-4.8-18.8-14.9-7.4-24.3c15.7-13,15-29,15.1-46c0.1-11.6-1.7-24.4,10.8-32
			c30.9,9.6,61.8,19.3,92.8,28.7c7.6,2.3,15.5,4.6,19.4,11.5C789.1,584.2,814.2,603.2,831.3,628.6z"/>
		<path class="st5" d="M297.4,623c-5.3,2.1-10.6,4.2-15.9,6.3c16.9-26.3,42.7-45.5,58.4-73c5.4-9.4,17.1-10.4,26.6-13.4
			c28.1-9,56.5-17.4,84.8-26.1c14.9,10.1,9.8,25.8,10.9,39.6c0.9,11.6-1.8,23.8,9.7,32.6c6.6,5,14.1,11.4,9.7,21.2
			c-4.5,10.1-14.8,10.7-24,10.9c-32.3,0.5-64.5-0.2-96.8,0.3C339.7,621.8,318.5,619.4,297.4,623z"/>
		<path class="st6" d="M297.4,623c43.8-9.3,88.2-1.7,132.3-4.2c16.4-0.9,34.2,3.8,47.7-10.3c-3.7-9.9-12.7-9.2-19.2-12.2
			c-8-3.8-12-8.8-9.6-18.1c5.1-20.2,1.7-40.8,2.8-61.2c9.7-3.5,19.4-6.9,29-10.4c16.6,5.5,17.2,21.3,21.9,34.4
			c3.3,9.5,4.9,19.5,8.9,28.9c10.2,17,23.2,33.7,6.6,54C444.3,623.5,370.9,623.2,297.4,623z"/>
		<path class="st7" d="M661.7,517c1,20.4-1.8,40.9,2.6,61.3c4.9,22.8-20.5,15.7-28.9,29c8,11.3,20.4,11.4,32.9,11.4
			c40.2,0,80.3-0.1,120.5,0.1c9.2,0,19-2.1,26.7,5.6c-73.3-0.3-146.7-0.5-220-0.8c-15.6-20.2-1.6-36.8,6.7-54
			c4.9-14.3,9.1-28.8,13.7-43.1c2.9-8.9,6.2-17.6,17-19.9C642.5,510.1,652.1,513.5,661.7,517z"/>
		<path class="st8" d="M507.7,459.6c33.9,40.5,63.8,40.5,97.5,0c3.3,8.5,6.6,16.9,9.9,25.4c-6.3,30.4-26.7,47.2-54.7,56.6
			c-2.5,0.5-5.1,0.5-7.6,0.2c-28-9.6-48.7-26.2-55-56.8C501.1,476.5,504.4,468.1,507.7,459.6z"/>
		<path class="st9" d="M558.4,535.7c24.4-10.8,38.3-33.4,56.8-50.8c5.9,7.2,11.8,14.4,17.7,21.6c-7.2,22.1-11,45.4-21.8,66.4
			C585.1,577.4,563,561.8,558.4,535.7z"/>
		<path class="st9" d="M497.8,485c18.5,17.4,32.4,40,56.8,50.8c-4.9,26.3-26.8,41.7-52.5,37.1c-11.2-20.8-14.5-44.3-21.7-66.4
			C486.2,499.3,492,492.1,497.8,485z"/>
		<path class="st10" d="M298.8,963.8c2.5,0.1,5,0.2,7.5,0.3c10.8,6,22.3,3.9,33.8,2.8c6.4-1.4,12.8-1.5,19.2,0.4
			c16.9,15.7,35.4,6.5,53.5,3.5c95.8-0.3,191.5-0.3,287.1,0c18.1,2.7,36.8,12.3,53.8-3.6c7.7-2,15.5-1.9,23.3-0.6
			c10.2,1.8,20.4,3,29.9-2.8c2.4,0,4.8,0,7.3,0c10,0.5,18.5,3.2,21.9,14c2,41.2,2,41.3-39.5,41.2c-65.7-0.1-131.3-0.4-197-0.6
			c-28.8-2.8-57.5-2.8-86.3,0c-65.7,0.2-131.3,0.4-197,0.6c-41.5,0.1-41.5,0-39.4-41.2C278.9,964.8,289.5,965.3,298.8,963.8z"/>
		<path class="st11" d="M502.1,572.9c20.8-7.7,35.9-23.5,52.5-37.1c1.3-0.2,2.5-0.2,3.8,0c16.7,13.7,31.9,29.5,52.7,37.2
			c-7.7,16.1-15.8,32.1-15.6,50.7c-25.9,0-51.9,0-77.8,0.1C518.5,604.9,510.6,588.8,502.1,572.9z"/>
		<path class="st12" d="M405.9,978c-18.9,16.2-37.7,14.3-48-5c-4.2-6.3-11.7-4-17.3-6.8c-1.9-1.4-2.5-3.2-2.1-5.5
			c17.7-9.8,37.1-8.2,56.3-8.3c11.5-8.7,21-1.7,30.7,3.9c87.4,0,174.7,0,262.1,0c7.5-4.8,14.7-5.8,21.5,1.3c0.8,3.4-0.2,6.2-2.8,8.5
			c-10.2,6.3-21.5,4.2-32.4,4.2c-76.7,0.2-153.4,0.1-230.1,0.2c-10.2,0-20.5-1-30.5,1.8C410.5,973.9,408,975.7,405.9,978z"/>
		<path class="st13" d="M502.7,747.2c35.9,0,71.7,0,107.6,0c6.2,35.7,2.1,40.8-33.3,41c-13.6,0.1-27.3,0.1-40.9,0
			C500.6,788,496.5,782.9,502.7,747.2z"/>
		<path class="st1" d="M502.7,747.2c-4.2,24.9,6.8,33.6,31,31.1c15.1-1.5,30.5-1.5,45.6,0c24.2,2.5,35.2-6.2,31-31.1
			c13.8,39.2,6.1,51.1-33.3,51.3c-13.7,0.1-27.4,0.1-41,0C496.7,798.3,488.9,786.3,502.7,747.2z"/>
		<path class="st12" d="M707.8,963.2c0-2,0-4-0.1-6c0.7-7.8,4.6-8.3,10.5-4.7c21-1,41.3,2.4,61.4,8.3c0.2,2.4-0.7,4.3-2.7,5.6
			c-7,3.2-16.1-0.9-21.8,6.6c-10.3,19.3-29.1,21.2-48,5c-1.4-1.8-2.4-3.7-3.1-5.9C703.9,968.5,705.3,965.6,707.8,963.2z"/>
		<path class="st1" d="M425.4,956.4c-10.7,2.4-20.6-1.9-30.7-3.9C406.1,934,411.6,934.7,425.4,956.4z"/>
		<path class="st1" d="M718.2,952.5c-3.5,1.6-7,3.1-10.5,4.7c-6.7-0.3-13.5-0.5-20.2-0.8C701.4,934.7,706.9,934,718.2,952.5z"/>
		<path class="st14" d="M513.4,1018.5c28.8-7,57.5-7,86.3,0C570.9,1018.5,542.1,1018.5,513.4,1018.5z"/>
		<path class="st15" d="M298.8,963.8c-1.9,13.1-14.5,9.4-21.8,14.1l0.3-0.2c-3.5-10.5-9-21.2,3.9-29.5
			C287,953.4,292.9,958.6,298.8,963.8z"/>
		<path class="st15" d="M836.1,977.8c-7.4-4.6-20-0.9-21.9-14.1c7.6-5.6,15.2-11.2,22.9-16.8c3.2,8,2,16.2,0.9,24.3
			C837.3,973.5,836.7,975.6,836.1,977.8z"/>
		<path class="st16" d="M337.8,971.1c-11.2,0.6-24.5,10.8-31.5-7c10.2-6.6,21.6-0.5,32.2-3.3c-0.4,1-0.5,2-0.3,3.1
			C341.2,966.4,341,968.8,337.8,971.1z"/>
		<path class="st17" d="M837.9,971.3c-0.3-8.1-0.6-16.2-0.9-24.3c0.1-6.4-3.2-13.2,3.5-21.2C842.3,942.5,841.3,956.9,837.9,971.3z"
			/>
		<path class="st16" d="M806.9,963.7c-5.3,15.7-16.4,9.8-26.7,7.3c-3.1-2.2-3.4-4.6-0.3-7.1c0.1-1.1,0-2.1-0.3-3.1
			C788.7,962.2,798.3,958.6,806.9,963.7z"/>
		<path class="st18" d="M281.1,948.2c-8.2,8.9-3.2,19.6-3.9,29.5c-9.4-9.6-7.3-22.3-4.6-32.5C275,936.2,278.7,945,281.1,948.2z"/>
		<path class="st19" d="M456.8,285.1c3.1,3.3,6.2,6.7,9.3,10c0,3.9,0,7.8,0,14.3C457.3,301.3,457.7,293,456.8,285.1z"/>
		<path class="st20" d="M707,972.7c0,1.8,0.1,3.6,0.1,5.3c-100.4,0-200.9,0-301.3,0c0-1.8,0.1-3.6,0.1-5.3
			c6.5-5.5,14.3-4.6,21.9-4.6c85.8-0.1,171.5-0.1,257.3,0C692.7,968,700.6,967.2,707,972.7z"/>
		<path class="st21" d="M780,963.9c0.1,2.4,0.2,4.8,0.3,7.1c-8.4,0.7-16.8,1.3-25.1,2C757.1,952.9,770.6,964,780,963.9z"/>
		<path class="st21" d="M337.8,971.1c0.1-2.4,0.2-4.8,0.3-7.2c9.2-2.6,19.2-7.1,19.7,9.1C351,974.3,344.3,974.2,337.8,971.1z"/>
		<path class="st22" d="M707,972.7c-100.3,0-200.7,0-301,0c-1.3-9.9,5-11.2,12.6-11.2c96.4,0.6,192.9,1.1,289.3,1.7
			C707.6,966.3,707.3,969.5,707,972.7z"/>
	</g>
</g>
</svg>
