<?xml version="1.0" encoding="utf-8"?>
<!-- Generator: Adobe Illustrator 24.0.2, SVG Export Plug-In . SVG Version: 6.00 Build 0)  -->
<svg version="1.1" id="Layer_1" xmlns="http://www.w3.org/2000/svg" xmlns:xlink="http://www.w3.org/1999/xlink" x="0px" y="0px"
	 viewBox="0 0 1080 1080" style="enable-background:new 0 0 1080 1080;" xml:space="preserve">
<style type="text/css">
	.st0{fill:#0189B1;}
	.st1{fill:#FEFEFE;}
	.st2{fill:#231F20;}
	.st3{fill:#5CAFD6;}
	.st4{fill:#2F2B2C;}
	.st5{fill:#2C2829;}
	.st6{fill:#2B2728;}
	.st7{fill:#252223;}
	.st8{fill:#2B2829;}
	.st9{fill:#73CE73;}
	.st10{fill:#FECE32;}
	.st11{fill:#EC6162;}
	.st12{fill:#FED039;}
	.st13{fill:#FECC29;}
	.st14{fill:#FEAD2C;}
	.st15{fill:#FA9222;}
	.st16{fill:#EFEFEF;}
	.st17{fill:#ED8B22;}
	.st18{fill:#EC8A22;}
</style>
<image style="overflow:visible;enable-background:new    ;" width="1080" height="1080" id="Layer_0" xlink:href="31C9D045.png" >
</image>
<g>
	<g>
		<path class="st0" d="M964.1,509.1C980,749.6,804,941.3,591.1,964.8c-270.1,30-443.8-164.7-475.7-349.9
			c-20.1-116.5,5.7-227.2,76.5-325.6c68.2-94.6,159.8-153.3,272.6-172.1c123.9-20.6,240.4,6.8,339.6,87.2
			C900.1,282.4,954,384.7,964.1,509.1z"/>
		<path class="st1" d="M143.2,574.8c-9-116,25.7-217.3,103.5-303.3s177-129.3,291.3-128.9c227.7,0.9,384.9,183.6,394.5,372.1
			c13.1,258.3-194.1,425.5-395.8,423C311.9,934.9,155.7,757.3,143.2,574.8z"/>
		<path class="st2" d="M438.8,710.2c15-23.6-3.9-31.2-24.1-39.5c-16.8-7-32.8-22.3-49.2-22.3c-15.8-0.1-31.4,15.2-47.5,22.7
			c-8.6,4-17.3,15.1-27,7.9c-9.5-7-2.3-18.7-1-28.1c2-14.4,4.8-28.7,7.4-43c1.3-6.9,0.1-12.1-4.8-18.2
			c-11.4-14.2-22.4-16.6-37.8-5.9c-7.1,4.9-15.8,13.9-25.3,8.4c-11.2-6.5-3.9-18.6-1.2-25.9c9-24.5-3.6-38.6-20-52.5
			c-5.2-4.4-13.3-8.8-10.4-17.5c2.9-8.5,12.2-6.1,18.8-8.1c0.5-0.2,1.1-0.2,1.7-0.2c24.4,1.7,39.5-9.6,46.2-32.9
			c0.9-3.2,2.6-6.2,4.3-9.1c6.9-12.2,13.4-12.4,20-0.2c5.3,9.8,10.3,19.8,14.9,30c2.6,5.8,6.6,7.4,12.4,9.2
			c16.9,5.3,26.6,0.9,32.8-16.3c3.3-9.2,4.9-23.7,17.6-24c13.1-0.4,15.9,14.5,17.8,23.4c11.3,53,53.1,54.7,94.2,58.7
			c7.8,0.8,9-4.6,11.4-9.6c11-22.6,22-45.1,33.3-67.6c2.6-5.3,4.4-11.9,12.2-12.4c8.9-0.5,10.8,6.8,13.7,12.6
			c10.7,21.5,21.5,42.9,31.5,64.7c4.3,9.3,8.7,13.9,20.1,11.2c15.7-3.7,31.9-6.3,47.9-7c12.2-0.5,17.5-6.3,22-16.4
			c7.2-16.3,15.5-32.2,23.5-48.1c2.5-5,4.9-10.4,11.9-10c6.1,0.3,8.1,5.3,10.5,9.7c2.6,4.9,4.2,10.5,7.5,14.9
			c4.9,6.5,3.2,19.5,15.7,18.6c13.6-1,27.7-1.7,32.5-19.4c2.3-8.4,7.3-16.3,11.8-24c5.6-9.7,13.8-10,17,0.3
			c9.9,31.5,29.5,46.9,62.9,46.3c11.9-0.2,15.3,9.6,5.6,16.4c-27.2,19.3-34.5,43-24.1,74.6c3.8,11.5-4.7,14.6-15,9.9
			c-5-2.3-9.6-6-14.8-7.6c-7.7-2.4-13.8-14-23.5-5.8c-10.9,9.2-22.2,17.5-16.1,36.2c5.3,16.3,6.5,34,8.8,51.2
			c1.9,14.7-3.8,18.5-17.5,12.4c-2.5-1.1-4.9-2.7-7.4-3.9c-18.3-9.3-36.6-25.7-55-25.9c-17.7-0.2-35,18.1-53.6,25
			c-18.7,6.9-26,15.9-18.3,35.5c2.2,5.6,3.9,13.4-3,18.5c-7.2,5.3-12.6-0.3-18.3-3.3c-21.3-11-42.6-21.9-63.5-33.6
			c-8.2-4.6-14.8-4.8-23.2-0.2c-22.3,12.6-45.1,24.5-67.9,36.1C443.8,732.9,437.9,728.5,438.8,710.2z"/>
		<path class="st3" d="M364.7,721.7c-7.3,6.4-13.6,16-19.8,15.9c-5.6-0.1-15.3-10.7-15.4-16.8c-0.1-6.7,9.5-16.9,16.6-16.1
			C352.6,705.5,358.1,715.3,364.7,721.7z"/>
		<path class="st4" d="M474.5,357.3c0.4,4.4-1.4,7.7-5.9,8.5c-3.9,0.7-6.3-2.1-7.1-5.5c-3.1-12.3-6.1-24.6-8.9-37
			c-1-4.4,1.2-7.7,5.8-8.4c3.6-0.5,6.3,1.5,7.2,5.2C468.6,332.6,471.5,344.9,474.5,357.3z"/>
		<path class="st4" d="M612.1,314.8c5.6,0.7,8.4,3.3,7.4,7.9c-2.9,13-6.1,25.9-9.5,38.8c-0.9,3.5-4,6-7.6,4.5c-2.1-0.9-5-4.3-4.7-6
			c2.8-14.1,6.2-28.2,9.8-42.1C607.9,316.4,610.9,315.5,612.1,314.8z"/>
		<path class="st5" d="M368.3,417.2c-1.6,5.7-5.2,8.4-10.9,4.8c-10.8-6.8-21.3-14-31.8-21.3c-2.8-1.9-4.7-4.9-2.4-8.6
			c1.6-2.6,4.6-4.5,7-3.3c13.3,6.8,25.9,14.9,37.2,24.8C368.1,414.3,368,415.8,368.3,417.2z"/>
		<path class="st6" d="M749.6,394.2c0.3,4.2-2.3,6.5-5,8.4c-9.2,6.3-18.5,12.3-27.8,18.5c-4,2.7-8.4,4.5-11.8-0.2
			c-3.4-4.7-0.6-8.3,3.6-11.1c9.7-6.5,19.4-13.1,29.2-19.3C743,387.2,747.4,388.1,749.6,394.2z"/>
		<path class="st7" d="M529.5,331c0-6.1-0.3-12.2,0.1-18.2c0.2-3.6,2.5-6.2,6.4-6.1c3.9,0,6.3,2.6,6.4,6.2c0.3,13.3,0.3,26.5,0,39.8
			c-0.1,3.6-2.8,6.1-6.5,6c-3.6-0.1-6.3-2.5-6.4-6.1C529.2,345.3,529.4,338.1,529.5,331L529.5,331z"/>
		<path class="st8" d="M412.7,377.2c-0.1,4.5-1,7-3.8,8.3c-3.8,1.7-6.6-0.6-8.3-3.4c-6.3-11-12.4-22.1-18.2-33.4
			c-1.5-2.9-1.6-6.4,1.7-8.9c2.6-2,5.8-2.1,7.5,0.1C400.9,351.5,406.6,365.3,412.7,377.2z"/>
		<path class="st6" d="M665.5,386.5c-5.1-1-7.7-4.7-5.9-8.4c5.9-12.4,12.4-24.6,19.2-36.5c1.6-2.9,5.5-3.6,8.9-1.7
			c2.9,1.6,3.7,4.8,2.5,7.1c-6.6,12.7-13.6,25.1-20.6,37.6C668.8,385.6,666.7,385.9,665.5,386.5z"/>
		<path class="st9" d="M684.3,246c4.5,11.5,10.6,18.1,20.7,21.5c-8.1,5.8-17.1,9.8-19.1,22.1c-6.7-9.1-11.5-17.4-23.1-21.2
			C673.6,263.3,680.8,257.8,684.3,246z"/>
		<path class="st10" d="M412.4,792.5c9-5.9,15.8-11.5,21-21.7c4.2,9.8,10.2,16.3,21.1,20.9c-10.8,4.2-17.2,10.6-21,20.4
			C428.3,803.6,423.7,796,412.4,792.5z"/>
		<path class="st11" d="M508.7,752.3c-0.2,3.7-2.4,6.2-5.9,6.5c-4.5,0.4-7-2.4-6.9-6.9c0-4.1,2.7-5.7,6.4-5.6
			C505.9,746.4,508.3,748.2,508.7,752.3z"/>
		<path class="st12" d="M614.4,228.9c-4.7-0.1-7.1-2-7.4-5.8c-0.3-3.8,2-6.3,5.7-6.6s6.2,2,6.6,5.7
			C619.7,226.1,617,227.8,614.4,228.9z"/>
		<path class="st13" d="M620,713.4c-25.2-13.3-48.1-24.8-70.4-37.4c-9.9-5.6-18.1-5.3-27.9,0.2c-22.3,12.5-45.2,24.1-69.9,37.1
			c4.6-26.4,8.3-50.6,13.1-74.6c2.6-13.2,0.3-23.2-10.2-32.7c-17.5-15.9-33.6-33.4-52.2-52.2c27.7-4.3,52.2-8.7,76.8-11.7
			c11-1.3,16.6-6.7,21.1-16.1c10.9-23.1,22.5-45.8,35.5-72c12.4,25.2,23.8,47.3,34.2,69.9c5.2,11.2,11.9,17.1,24.9,18.5
			c24.1,2.5,48,7.1,74.4,11.3c-18.3,18.6-34.7,36.6-52.7,52.9c-10.1,9.2-12.3,18.6-9.9,31.2C611.4,661.9,615.2,686.2,620,713.4z"/>
		<path class="st14" d="M432.4,664.8c-19.8-10.5-36.7-19-53.1-28.3c-8.8-5-16.2-4.8-24.9,0.2c-16.4,9.3-33.3,17.7-52.9,28
			c3.4-20.1,6.1-37.5,9.5-54.6c2.5-12.5,0.4-22.2-10-31.1c-13.1-11.1-24.5-24.2-38.9-38.6c20.8-3.2,39-6.7,57.4-8.6
			c10.1-1,16.2-4.8,20.4-14.1c8-17.7,16.9-35.1,26.7-55.2c7.7,15.2,15.4,27.8,20.6,41.4c7.1,18.5,17.1,31.3,39.6,28.3
			c-9.9,5-19.6,5.8-29.5,6.8c-5.5,0.5-11,2.2-13.5,8.2c-2.9,6.7,1.1,11.4,5.5,14.3c30.3,19.8,37.1,50.6,40,83.5
			C429.6,650.6,430.9,656,432.4,664.8z"/>
		<path class="st14" d="M643.4,534c24.5,2,34.8-13.4,42.7-32.9c5-12.4,11.8-24,18.5-37.5c11.6,16.7,17.7,34.5,25.7,51.1
			c5.1,10.6,11.1,16.4,23.7,17.3c17.5,1.2,34.9,5,56,8.2c-14.7,14.7-26.9,28-40.3,40c-8.5,7.7-11.2,15.7-9,26.7
			c3.5,18,6.3,36.1,9.9,57.5c-18.4-9.6-34.8-17.3-50.3-26.6c-11-6.6-20.1-6.2-30.9,0.2c-15.2,9.1-31.4,16.7-49.7,26.3
			c4.1-24.8,5.8-47.7,12.2-69.2c3.8-13,18.8-20,28.2-30.3c4.3-4.8,11.4-8.5,8.4-16.7s-10.5-8.8-17.9-9.8
			C661.5,537.2,652.4,535.5,643.4,534z"/>
		<path class="st15" d="M278,454.5c6.2,12.3,10.1,18.5,12.5,25.3c4.4,12.7,12.2,19.3,26.1,18.8c4.6-0.2,12.1-0.4,12.7,4.8
			c0.6,5.7-3.2,12.3-10.3,13.5c-24.1,4-48.2,9.5-72.5,10.6c-12.4,0.6-17.5-15.5-28.6-24.7C251.4,504.7,270.7,488.7,278,454.5z"/>
		<path class="st15" d="M741.4,499.5c32.6,6.7,40-18.2,51.4-44.9c9.7,32.4,26.2,51.3,59.9,45.6c-11.5,22-20.9,27.5-41.1,24.9
			c-17.7-2.2-35.2-5-52.9-6.9C748.7,517.1,743.7,511.7,741.4,499.5z"/>
		<path class="st16" d="M446,660.3c-3.1-16-6.2-31.9-9.5-49.1C464.9,623.1,446.6,643.6,446,660.3z"/>
		<path class="st16" d="M635.1,611.4c-3.1,17.4-5.6,31.8-8.1,46.1C624.4,642,609.6,624.6,635.1,611.4z"/>
		<path class="st17" d="M244.9,545.6c8.7,6.6,14.4,11.6,18.9,18.7c-6.9,3.7-13.6,7.3-21.5,11.5C239.8,565.2,244.9,556.8,244.9,545.6
			z"/>
		<path class="st18" d="M831.5,576.8c-9-4.7-15.7-8.2-23-12c6-6,11.4-11.4,17.9-18C828.1,556.6,829.6,565.3,831.5,576.8z"/>
	</g>
</g>
</svg>
