<?xml version="1.0" encoding="utf-8"?>
<!-- Generator: Adobe Illustrator 24.0.2, SVG Export Plug-In . SVG Version: 6.00 Build 0)  -->
<svg version="1.1" id="Layer_1" xmlns="http://www.w3.org/2000/svg" xmlns:xlink="http://www.w3.org/1999/xlink" x="0px" y="0px"
	 viewBox="0 0 1080 1080" style="enable-background:new 0 0 1080 1080;" xml:space="preserve">
<style type="text/css">
	.st0{fill:#82D8FE;}
	.st1{fill:#FE84A6;}
	.st2{fill:#5FC8EC;}
	.st3{fill:#FABFCF;}
	.st4{fill:#DCF4FE;}
	.st5{fill:#FDCAA9;}
	.st6{fill:#83D8FE;}
	.st7{fill:#EE6085;}
	.st8{fill:#C87F4C;}
	.st9{fill:#FE83A6;}
	.st10{fill:#62C9ED;}
	.st11{fill:#EF6186;}
	.st12{fill:#FEAD84;}
	.st13{fill:#4F7693;}
	.st14{fill:#FBCAA9;}
	.st15{fill:#64C6EA;}
	.st16{fill:#FDC9A9;}
	.st17{fill:#FEFEFE;}
	.st18{fill:#4F7692;}
	.st19{fill:#FEAD85;}
	.st20{fill:#DAE2E7;}
	.st21{fill:#315268;}
	.st22{fill:#FBCAAA;}
	.st23{fill:#FCC9A9;}
	.st24{fill:#EA6588;}
	.st25{fill:#ED6186;}
	.st26{fill:#315267;}
	.st27{fill:#305167;}
</style>
<g>
	<g>
		<path class="st0" d="M981.9,780.8c0,3.2,0,6.3,0,9.5c-6.4,18.1-5.2,40.2-26.8,50.2c-13.4-0.1-19.5-11.3-28.2-18.4
			c-9.4-12.8-24.1-19.3-35.2-30.2c-4-6-5.6-12.5-5.5-19.6c7.5-24.4-1.5-43-20-58.7c-7.2-6.1-13.6-13.3-20.3-19.9
			c-14-14.6-28.6-28.5-42.6-43.1c-6.2-6.5-14.7-12.1-13.2-23.2c18.8-19.4,32.2-21.8,54.1-9.5c6.2,3.5,11.9,7.8,16.9,12.8
			c29.1,28.8,58.4,57.6,86.8,87.1C965.1,735.4,977.8,755.9,981.9,780.8z"/>
		<path class="st1" d="M444.5,855.8c-15.2,14.9-31.2,29-45.3,44.9c-20.7,23.5-46,39.7-74.5,51.6c-17.5,0-34.9,0-52.4,0
			c-15.1-10.9-36.1-11.8-48-28.2c-2-13.6,9.6-19.3,16.2-27.9c7.4-5,13.1-13.7,23.9-11.7c36.3,26.4,43.9,25.7,76.2-6.4
			c23.1-22.9,46-45.9,69.1-68.8c19.4-19.2,57.7-22.9,73,7.5C477.6,837.2,460.2,845.6,444.5,855.8z"/>
		<path class="st2" d="M981.9,780.8c-26.6-60.6-80-98.4-123.5-144.5c-24.9-26.4-37.3-26.8-68-7.4c-18.5-8.7-15.3-23.6-9.7-37.9
			c7.7-19.4,27.4-29.5,48-26.1c16.5,2.7,28.3,13.1,39.5,24.4c7.3,7.3,14.5,14.5,16.9,25.1c14.3,14.8,27.9,30.3,42.9,44.3
			c24.2,22.4,43.2,47.9,53.9,79.2C981.9,752.3,981.9,766.6,981.9,780.8z"/>
		<path class="st3" d="M981.9,280.9c-1.4,0.3-2.9,0.4-4.3,0.3c-9.2-11.3-9.2-22.6,0-33.9c1.4,0.2,2.9,0.2,4.3,0.3
			C981.9,258.7,981.9,269.8,981.9,280.9z"/>
		<path class="st4" d="M810.7,948.1c-0.1,1.4-0.2,2.8-0.2,4.1c-9.5,0-19,0-28.6,0c0-1.4-0.1-2.8-0.2-4.2
			C791.4,939.5,801,939.4,810.7,948.1z"/>
		<path class="st5" d="M440.4,181c61.6-18.5,123.7-20.3,186.5-6.5c6.8,1.5,14,1.1,21.1,1.6c-0.4,15.6-15.5,19.9-23.4,29.7
			c-12.9,15.9-23.4,31.6-14,53.1c21.1,19.1,32.8,19.6,52.4,1.6c13.2-12.1,25.2-25.6,38.4-37.8c7.3-6.7,14.5-15.6,26.3-7.7
			c29.9,46.6,51.3,96,48.3,153c-11.3,10.9-17.1-0.6-22.4-6.8c-9.8-11.5-19.9-22.6-30.3-33.4c-10.8-11.2-21.3-12.6-32.9-1.6
			c-23,21.8-47.4,42.1-70.8,63.4c-10.6,9.6-10.8,19-2.1,28.8c17.5,19.5,34.8,39,52.1,58.6c10.5,11.8,20.9,9.2,30.4-1.1
			c17.3-18.7,38.5-33,56.5-50.9c5.8-5.8,11.4-16.6,23.1-8.7c1.5,63.1-18.8,120.2-51.6,172.6C669,683.1,583.3,737.5,473.5,754
			c-3.9,0.6-7.7,1.9-11.6,2.7c-6.3,1.4-12.7,2-19.1,2.1C376,761,313,746.3,253.9,715.1c-5.9-3-10-7.7-13.4-13.2
			c-12-25.7-28-49.9-30.5-79.3c-17.9-67.8-22.5-135.6-0.4-203.5c18-1.9,24.1,14.4,34.5,23.5c21.2,18.5,35.6,18.3,55.8-2.9
			c7.9-15.3,1.7-27.4-8.7-38.5c-12.4-13.2-25.7-25.6-38.2-38.7c-6.5-6.8-13.7-13.4-13.1-24.1c8-22.8,24.7-39.6,39.1-58.1
			c6.2-6.1,11.9-12.6,18.2-18.5c19.4-19.8,41.7-35.8,64.8-51c16.9-8.9,34-17.4,51.9-24.2C422.5,182.8,431,179.5,440.4,181z"/>
		<path class="st6" d="M305,442.8c-19.8,24.9-40.8,27.1-62.9,6.4c-10.8-10.1-21.6-20.1-32.4-30.2c-21.8-22.6-43.5-45.1-65.3-67.7
			c-19.1-19.8-30.8-43.1-33.3-70.8c7-28.9,20.7-53,47.5-68.1c3.2-0.1,6.8,0.2,8.9,2.5c15.4,17.2,35.5,21.7,57.4,22
			c3.5,8.2-2.2,13.5-7,18c-13.3,12.5-16.7,27.2-12.1,44.3c-8.4,26.7,1.8,46.1,21.5,64.6C254.1,389.2,280.9,414.7,305,442.8z"/>
		<path class="st7" d="M605.8,261.7c-9.3-15.9-7.2-30.8,3.2-45.5c10.9-15.5,26-26.7,38.9-40.2c24.8-24.2,47.2-51,74.9-72.1
			c44.2-33.5,105.3-31.4,145.7,4.4c1.4,14.4-8.9,21.1-18.5,28.4c-2.2,0.9-4.6,1.5-7,1.7c-18.3,0.4-35.1-10.3-53.6-8
			c-29.8,3.7-56.4,14.4-77.9,36.4c-27.1,27.6-54.6,55-82.3,82.1C622.9,255.1,617.5,264.4,605.8,261.7z"/>
		<path class="st8" d="M243.2,899.9c-6.3,8.1-12.6,16.1-18.8,24.2c-40.2,31.1-81.5,19.3-101.2-28.5c-9.3-22.5,3.8-37.5,16.8-52.7
			c4.4-15.9,18.1-21.6,31-28.2c33-1,71.3,27.8,77.6,58.3C250.7,882.7,250,892,243.2,899.9z"/>
		<path class="st8" d="M848.9,133.6c6.5-8.4,13.1-16.9,19.6-25.3c44.9-40.6,70.8-13.4,99.2,27.9c14.3,20.8-2,38.4-15.3,54.2
			c-3.5,13.1-15.1,19-24.3,26.9c-3.4,1.5-7,2.2-10.7,2.3c-34.9-2.6-53-28.5-70.9-53.1C839.7,157.1,839.7,144,848.9,133.6z"/>
		<path class="st8" d="M138.7,193.7c-27.8-32.9-27.8-48.6-0.2-76.5c34.2-34.5,46.5-35.5,81.4-6.8c10.8,2.4,16.3,10.2,20.3,19.7
			c11.1,46.5-33.7,92.1-80.4,82C147.9,211.6,141.2,205.1,138.7,193.7z"/>
		<path class="st9" d="M167.9,820.1c-9.3,7.6-18.5,15.2-27.8,22.8c-18.9-25.6-29.3-53.6-24.9-85.9c7.2-26.4,26.3-44,46.2-60.4
			c25.3-20.9,52.7-10.8,62.4,21.9c-5.6,15.9-20.7,28.4-17.3,47.6c-1.4,10.5-7.6,19.3-10.7,29.2C190.2,807.8,177.2,811.8,167.9,820.1
			z"/>
		<path class="st2" d="M234.6,128.8c-4.9-6.1-9.8-12.3-14.7-18.4c54.3-39.8,115.3-35.7,162.8,11.3c19.6,19.4,38.5,39.5,57.7,59.3
			c-7.6,5.5-16.4,7.7-25.3,9.5c-13.3,4.9-20.8-4.7-27.8-12.5c-37.4-41.8-83.3-51.8-136-37.7C242.4,141.3,238.8,134.7,234.6,128.8z"
			/>
		<path class="st7" d="M220.2,718.6c-11.5-31.7-41-34.9-60.7-13.5C144,721.9,129.1,739,115.2,757c-0.9-26.9,10.3-49.3,27.9-68
			c21.5-23,44.6-44.4,67-66.4c11.2,25.5,22.3,51,33.5,76.5C239.9,710.5,234.3,719.6,220.2,718.6z"/>
		<path class="st10" d="M138.7,193.7c6.4,5.2,12.8,10.3,19.2,15.5c1.6,0.7,2.3,1.6,2,2.6c-0.4,1.1-0.8,1.7-1.2,1.7
			c-19.4,19.8-34.4,42.7-47.5,67C108.4,247.8,114.2,217.8,138.7,193.7z"/>
		<path class="st11" d="M929.2,213.7c3.7-11.8,15.7-15.4,23.3-23.3c13.4,16.7,22.4,35.4,25.1,56.9c0,11.3,0,22.6,0,33.9l-0.7-0.6
			c-2.4,0.8-5.4,0.6-6.3-1.5C960.4,255,942.9,235.6,929.2,213.7z"/>
		<path class="st12" d="M462.8,752.1c43.3-10.7,87-19.2,126.8-41.6c106.3-59.8,168.6-148.7,183-270.4c1-8.6,3.2-17,4.8-25.4
			c7.2-15.4-4.2-28.7-5-43.3c0.1-57.1-22.7-107.1-48.2-156.3c0.9-0.6,1.7-1.3,2.6-2c22.9,6.1,38.1,23.7,56.2,37.1
			c5.9,6.1,12.3,11.7,18.1,17.9c19.6,19.2,35.6,41.2,50.4,64.1c5.7,10.8,11,21.8,16.7,32.6c6.5,14.4,14.5,28.4,13.9,45
			c19.6,68,19.8,136.2,2.8,204.7c-12.5-11.8-24.4-24.5-37.8-35.2c-16.5-13.2-35.2-14.8-51.4-0.2c-15.4,14-20.2,31.4-5.6,49.9
			c19.8,21.1,39.6,42.2,59.4,63.3c-1.4,26.8-23.6,41.1-36.7,60.8c-6.2,6-11.9,12.5-18.2,18.5c-19.5,19.9-42.1,36-65.3,51.3
			c-25.1,11.8-48.5,28-77.6,29.2c-61.5,18.9-123.7,20.4-186.4,6.8c-6.9-1.5-14-2-21-3c10.4-14.3,24.2-25.3,37.2-36.9
			c-1.6-3.9-1-7.9,0.7-11.4C494,782.6,475.5,768.4,462.8,752.1z"/>
		<path class="st2" d="M651.9,852.1c25.5-11.3,51-22.5,76.6-33.8c11.8,2.4,17.9,12.3,25.8,19.7c22.5,21.2,29,21.9,55.1,5.2
			c5.4-3.5,10.7-10.8,18.2-3.1c4.4,13.1,6,26.5,4.7,40.3c-26.5,38.6-45.3,43.4-84.1,17.4c-19.7-13.2-41.4-7.9-61.9-11.9
			C673,876.5,662,864.7,651.9,852.1z"/>
		<path class="st6" d="M686.3,885.9c22.8-9.9,44.6-7.2,65,6.1c36.8,23.9,38.3,23.9,69.8-4.9c2.8-2.6,6.4-4.4,9.6-6.6
			c12.5-0.4,17.2,10.8,25.3,16.9c6,8.1,17.5,12.7,16.5,25.4c-18.8,12.7-38.1,24.4-61.8,25.4c-9.7,0-19.3,0-29-0.1
			C740,942.5,711.4,916.9,686.3,885.9z"/>
		<path class="st1" d="M882.2,409.8c-6.3-14.5-12.7-29.1-19-43.6c13.7-20.1,29-39.8,19.9-66.8c3.4-17.6,3.5-34.1-11.4-47.5
			c-3.9-3.6-6.9-8.6-4.5-14.7c17.6-7.2,38.8-6.2,52.7-22.3c3.1-0.4,6.2-0.7,9.4-1.1c25.6,15.4,35,42.3,47.6,66.9
			c-1.2,23.7-10.8,44.6-26.2,61.5C929.1,365.7,905.2,387.3,882.2,409.8z"/>
		<path class="st13" d="M826.1,837.2c-4.3,3.4-8.8,6.5-12.9,10.2c-22.3,20-37.4,19.8-59.1-1.5c-9-8.8-17.1-18.4-25.6-27.6
			c21.1-16.8,44.1-31.2,63-50.7c3.4,1.9,6.3,4.4,9.2,6.9c3.9,3.4,8.2,9.1,13.7,4.2c5.2-4.7,0.4-9.9-2.1-14.5
			c-2.1-4-5.1-7.9-2.7-12.8c13.4-19.7,26.7-39.4,40.1-59.1c11.5,10.8,23.6,21,34.5,32.4c12.8,13.4,14.2,29.3,6.8,46.1
			c-4.4,11.4-13.1,19.4-21.4,27.9C854.3,810.6,845.1,829.5,826.1,837.2z"/>
		<path class="st8" d="M872.5,922.7c-6.4-7.6-12.8-15.2-19.2-22.9c-3-5.5-7.9-9.9-8.7-16.6c-3.8-32.3,55.1-76.5,85.3-63.9
			c7.8,6.5,15.6,12.9,23.5,19.4c32.1,38.5,18.2,85.2-30.3,101.8C901.4,947.9,887.1,935,872.5,922.7z"/>
		<path class="st14" d="M929.9,819.4c-47.8-1.9-86,38.3-76.6,80.5c-7.5-6.5-15.1-12.9-22.6-19.4c-6.7-13.9-8-28.3-4.6-43.3
			c13.7-14,27.5-28.1,41.2-42.1c9-5.5,17.5-14,28.7-4.4C909.6,797.6,921.8,806,929.9,819.4z"/>
		<path class="st15" d="M896,790.7c-9.6,1.5-19.2,2.9-28.7,4.4c7.9-8.1,15.8-16.2,23.6-24.3C892.6,777.4,894.3,784.1,896,790.7z"/>
		<path class="st7" d="M462.8,752.1c33.2,18.2,38.4,36.7,18.9,66.8c-34-27.8-46.5-27.1-78,4.4c-22.4,22.4-44.8,44.9-67.3,67.2
			c-28.8,28.5-48,27.1-74.1-5.3c-1.1-15.5,3.7-30.6,3.6-46.1c11.6-6,16.4,4.8,23.3,9.8c18.8,13.4,28.1,13.1,45.3-2.7
			c9.8-9,18.3-19.3,29.4-26.8c19-14,34.2-32.1,50.8-48.6c8.5-8.5,17.7-15.1,29.2-18.2C450.3,752.4,456.6,752.3,462.8,752.1z"/>
		<path class="st16" d="M267.9,837.9c6.9,16.8,3.3,32.3-5.5,47.3c-6.4,4.9-12.7,9.8-19.1,14.7C246,854,213,819,168,820.1
			c3.9-12,15.2-16.7,23.7-24.1c6.9-8,16.2-7.1,25.3-6.8C241.8,797.1,260.1,812,267.9,837.9z"/>
		<path class="st17" d="M772.4,371.4c8.5,13.6,26.7,26.1,5,43.3c-24.7,22-49.9,43.5-74,66.2c-13.9,13.1-25,16.9-38.8-0.2
			c-17.8-22.1-36.9-43.1-55.9-64.2c-10-11.1-6.3-19.9,3.1-28.3c25.3-22.6,50.9-44.8,76-67.6c13.3-12.1,23.9-13.8,38,0.8
			C741.7,337.6,753.5,357.9,772.4,371.4z"/>
		<path class="st13" d="M201.1,300c-14.1-28.6,8.5-43.7,22.9-61.7c9.9-19.7,28.8-31.7,42-48.7c15.5-15,32-32,55.4-21.3
			c19.7,9,37.1,23.3,43.4,46.3c-21.8,16.5-44.7,31.4-64,51.1c-2.7-1.5-5.1-3.4-7.5-5.4c-4.5-3.6-8.7-11.1-15.3-5.7
			c-5.3,4.4-0.3,9.9,2.2,14.5c2.1,4,5.2,7.9,2.5,12.8c-13.2,18.9-26.4,37.7-39.6,56.6C221.7,333.7,212.1,316.1,201.1,300z"/>
		<path class="st18" d="M267.9,837.9c-14.7-15.6-26.9-34-47.4-43.2c-10-6.8-17-15.7-19.2-27.9c-4.8-20.4,6-34.7,19-48.2
			c7.8-6.5,15.6-13.1,23.4-19.6c3.2,3.5,6.5,7,9.7,10.5c16.4,15,32.3,30.4,39.9,52.1c-1.3,8.4-15.7,14.6-9.2,22
			c8.8,10,17.1-7,27.1-5.7c22.2,11.2,45.4,21.2,57.4,45.4c-8,7.5-16.2,15-24.1,22.7c-26.1,25.6-39.8,25.8-65.7,1
			C275.2,843.8,271.5,841,267.9,837.9z"/>
		<path class="st9" d="M605.8,261.7c27.1-26.3,56-51.2,81-79.4c43.2-48.7,92.8-71.4,157.3-48.5c-7.8,19.8-20.5,38.1-18.2,60.9
			c-10.8,4.6-15.5-4.9-21.9-9.8c-19.6-15.2-31.4-15-50.4,1.4c-10.1,8.8-18.1,19.9-29.1,27.8l-0.4,0.8
			c-25.7,10.3-39.1,34.7-58.8,51.9C643.3,286.2,625.8,285.2,605.8,261.7z"/>
		<path class="st19" d="M292.5,760.7c-14.7-15.8-29.7-31.4-39.3-51.2c42.7,17.8,85.3,35,132,40.5c19.7,2.3,39.2,0.7,58.8,2.6
			c-28.1,20.5-48.8,48.9-75.6,70.8c-19.2-14.3-38.5-28.6-57.7-42.9C301.4,776.8,293.3,772.2,292.5,760.7z"/>
		<path class="st0" d="M364.8,214.6c-3.6-4.2-7-8.6-10.8-12.5c-40.7-41.6-43.4-41.8-87.2-7.1c-5.3-19-11.8-37.5-18.4-56.1
			c26.9-21.7,98.4-10.2,127.5,18.8c12,12,20.8,28.4,39.3,32.9C398.3,198.5,381.6,206.5,364.8,214.6z"/>
		<path class="st17" d="M339.2,676c-32.6-37.8-32.6-37.8,3.3-72.4c1.7-1.6,3.4-3.3,5.1-4.9c38.5-36.6,38.5-36.6,72.6,5.9
			C398.3,634.1,372.2,659.1,339.2,676z"/>
		<path class="st17" d="M438.8,623.8c32.7,38.6,32.7,38.6-6.4,71.5c-1.8,1.5-3.4,3.3-5.2,4.9c-37.8,34.9-37.8,34.9-69.6-4.9
			C378.7,664.8,405.4,640.5,438.8,623.8z"/>
		<path class="st2" d="M201.1,300c14,12.8,27.9,25.7,41.9,38.5c13.5,23,35.7,37.9,53,57.3c12.6,14.1,20,28.7,8.9,47
			c-22.1-9.1-34-29.9-50.9-44.9c-13-11.5-24-25.3-37.2-36.6C196.7,344.2,191.4,324.2,201.1,300z"/>
		<path class="st20" d="M438.8,623.8c-27.1,23.8-54.1,47.6-81.2,71.5c-7.6-5-14.2-11-18.4-19.3c27-23.8,54-47.6,81-71.5
			C428.1,609.4,434.5,615.5,438.8,623.8z"/>
		<path class="st21" d="M282.6,281.9c-0.7-1.4-1.3-2.9-2.2-4.2c-5.9-8-16.2-14.1-11.8-26.5c1.7-4.8,5.7-8.8,10.7-7.7
			c11.7,2.5,19.2,10,21.5,22.2C294.9,271.3,291.1,279.2,282.6,281.9z"/>
		<path class="st22" d="M248.3,138.8c15.7,15.5,23.8,33.6,18.4,56.1c-12.4,16.3-26.7,30.7-42.7,43.3c-29.7,12.7-46.8-8.1-65.5-24.7
			c-0.2-1.5-0.4-2.9-0.7-4.3c38.1,7.2,57.2-18,75.5-44.3c8.1-11.7,4.7-24,1.3-36.1C239.2,132.1,243.8,135.5,248.3,138.8z"/>
		<path class="st23" d="M824.8,194.5c-11.7-26,3.3-43.5,19.4-60.6c1.6-0.3,3.1-0.4,4.7-0.3c-1.3,40.3,26.3,72,71,81.3
			c-8.7,26.8-30.7,23.5-51.6,22.9C848.2,234,829.2,215.1,824.8,194.5z"/>
		<path class="st24" d="M201.2,766.8c5.6,9.8,17.2,15.6,19.2,27.9c-9.6,0.4-19.3,0.8-28.9,1.2C188.3,784.1,200.3,777.3,201.2,766.8z
			"/>
		<path class="st18" d="M824.8,194.5c12.4,16.5,26.8,31,43.5,43.2c15.9,17.8,33.3,35.2,18,62.1c-8.5,16.1-18.5,30.5-37.8,35.1
			c-17.3-21-31.5-44.5-51.3-63.5c1.9-3.4,4.3-6.3,6.9-9.2c3.4-3.9,9-8.3,4.2-13.7c-4.7-5.2-9.9-0.4-14.5,2.1
			c-4,2.1-7.8,5.2-12.8,2.7c-18.8-13-37.6-25.9-56.4-38.9c7.5-19.3,23.4-31.2,39.5-42c14-9.4,28.8-6,41.4,5
			C812,182.9,818.4,188.8,824.8,194.5z"/>
		<path class="st25" d="M848.5,334.8c12.6-11.7,25.2-23.4,37.8-35.1c10.9,30.3,6.6,42.5-23.1,66.4
			C858.3,355.7,853.4,345.3,848.5,334.8z"/>
		<path class="st26" d="M809.6,751.3c0.8,1.3,1.4,2.8,2.3,4c6.2,8.3,17.1,14.7,11.4,27.8c-2,4.6-6.2,7.9-11,6.5
			c-11-3.1-18.6-10.3-20.7-22.1C797.3,761.8,801.3,754.2,809.6,751.3z"/>
		<path class="st26" d="M780.9,253.2c1.4-0.8,2.9-1.4,4.1-2.3c7.9-6,14.1-16.2,26.5-11.8c4.8,1.7,8.8,5.6,7.8,10.7
			c-2.5,11.8-10.1,19.2-22.1,21.6C791.7,265.4,783.7,261.6,780.9,253.2z"/>
		<path class="st27" d="M292.5,760.7c7.2,5.5,14.6,10.9,18.2,19.7c-0.7,0.4-1.4,0.7-2.1,1.1c-10.3,6.7-21,24.3-32.9,7.5
			C265.8,775,283.7,768.5,292.5,760.7z"/>
	</g>
</g>
</svg>
