<?xml version="1.0" encoding="utf-8"?>
<!-- Generator: Adobe Illustrator 24.0.2, SVG Export Plug-In . SVG Version: 6.00 Build 0)  -->
<svg version="1.1" id="Layer_1" xmlns="http://www.w3.org/2000/svg" xmlns:xlink="http://www.w3.org/1999/xlink" x="0px" y="0px"
	 viewBox="0 0 1080 1080" style="enable-background:new 0 0 1080 1080;" xml:space="preserve">
<style type="text/css">
	.st0{fill:#0189B1;}
	.st1{fill:#FEFEFE;}
	.st2{fill:#FECD00;}
	.st3{fill:#FEA200;}
	.st4{fill:#636977;}
	.st5{fill:#E8ECF4;}
	.st6{fill:#FBA203;}
	.st7{fill:#555A66;}
	.st8{fill:#FED200;}
	.st9{fill:#5D667C;}
	.st10{fill:#414952;}
	.st11{fill:#23272B;}
	.st12{fill:#E7EEFA;}
	.st13{fill:#FEA700;}
	.st14{fill:#C88A1A;}
	.st15{fill:#404A58;}
	.st16{fill:#152235;}
	.st17{fill:#424A54;}
	.st18{fill:#64DBD7;}
	.st19{fill:#656B7A;}
	.st20{fill:#64DED9;}
	.st21{fill:#32383F;}
	.st22{fill:#444C56;}
	.st23{fill:#3A434D;}
	.st24{fill:#64E7E1;}
	.st25{fill:#64E8E2;}
	.st26{fill:#515769;}
	.st27{fill:#3E4653;}
	.st28{fill:#444A53;}
	.st29{fill:#333940;}
	.st30{fill:#2D3647;}
	.st31{fill:#3E464F;}
	.st32{fill:#24282D;}
	.st33{fill:#33445C;}
	.st34{fill:#202427;}
	.st35{fill:#181C20;}
	.st36{fill:#1E242C;}
	.st37{fill:#585D69;}
	.st38{fill:#30363D;}
</style>
<g>
	<g>
		<path class="st0" d="M489.3,160.6C599,146,697,174.7,780.4,246.2c78.5,67.3,121.2,154.9,128.5,258.1c6.1,86.5-16.3,168-67.1,237
			c-73.2,99.4-173.5,155.8-299.2,155.6C305.7,896.3,169.4,701.5,168.8,536c-0.4-92.9,26.9-175.8,87-248
			C318.5,212.5,422.6,165.3,489.3,160.6z"/>
		<path class="st1" d="M879.7,495.7c7.4,118.5-33,209.1-109.2,282.7c-60.7,58.7-137.6,90.3-221.4,90.3
			c-230.6-0.1-349-180.7-351.4-331.9c-3.8-235.7,194.2-353.1,338.5-352.2c105.2,0.7,194.3,40.7,263.1,120.6
			C848.4,362.4,874.4,430.3,879.7,495.7z"/>
		<path class="st2" d="M502.4,774.9c-57.9-5.4-106.8-30.5-146.1-72.1c-69.4-73.4-90.1-160.5-57-255.8
			c32.8-94.5,102.1-150.6,201.7-165.1c128.8-18.7,255.2,70.5,276.3,193c-8.1,1.4-11.6-5.3-16-9.7c-35.9-36-72.5-71.4-107.6-108.1
			c-2.5-2.6-4.7-5.4-8.6-5.9c-60.8-0.8-121.6-0.2-182.5-0.3c-4.1,0-8.1,0.4-11.9,1.8c-29.9,3.2-29.5,3.2-30.1,34
			c-0.4,18,3.1,36.2-2.7,53.9c-8.1,7.6-18.2,4.9-27.6,5.2c-24.2,0.8-33.3,9.1-33.5,33.3c-0.4,36.6,0.1,73.3-0.2,109.9
			c-0.1,13.4,5,23.6,15.3,31.6c1.2,1,2.3,2.1,3.3,3.4c15.2,19.8,34.6,35.7,51.6,53.8c4.2,4.4,8.9,8.3,12.3,13.5
			c1.4,2.5,1.8,5.2,2.1,8c0.2,1.3,0.4,2.6,0.6,3.9c0.5,1.9,1.3,3.8,2.2,5.5c14.5,18.4,32.6,33.3,48.4,50.4
			C496.9,763.5,503.8,766.7,502.4,774.9z"/>
		<path class="st3" d="M502.4,774.9c-17.3-17.7-34.6-35.4-51.7-53.2c-3.8-3.9-9-6.9-9.6-13.1c5.7-7.3,13.9-5.1,21.1-5.1
			c52.1,0,104.3-0.7,156.4-1c1.7-0.3,3.3-0.7,4.9-1.3c5.5-6.8,2.4-14.7,3-22.1c1.3-16.7-2.4-33.6,2.5-50.1c1.1-1.5,2.5-2.7,4.2-3.4
			c6.1-2.1,12.5-1.4,18.8-1.6c11,0,22,0.1,32.9,0c15.9,0.4,23-11,30.1-22.5c1-1.3,1.8-2.6,2.5-4c1.5-42.8,1.4-85.6,0.1-128.3
			c-1.1-1.1-2.1-2.3-3.2-3.5c-9.7-17.4-25-23.5-44.1-23.2c-7.2,0.1-15.4,1.8-20.5-6.2c-2.4-28.2-3.5-56.5,0.6-84.7
			c0.7-0.7,1.3-1.4,2-2.1c40.2,43.3,82.4,84.7,125.1,125.6c12.8,49,8,97.2-9.8,143.7c-39.8,104-144,168.5-255,159
			C509.1,777.3,505.8,775.8,502.4,774.9z"/>
		<path class="st4" d="M373.4,625.4c-15-5.2-21.4-16.5-21.5-31.6c-0.2-39.7-0.3-79.5,0-119.2c0.2-21.5,12.9-33.7,34.5-34.3
			c9.7-0.3,19.3,0.1,29,0.3c1.7,0.8,2.9,2.1,3.7,3.8c0.5,1.4,1,2.8,1.2,4.4c3.2,27.7,3.2,27.5,31,27.8c25.8,0.3,51.6-1.7,77.4,1.3
			c1.8,0.6,3.4,1.7,4.6,3.1c0.5,2.1-0.3,3.6-2.3,4.5c-33.5,0.2-67,0.1-100.6-0.2c-2-0.4,0.2,3.2-0.2,1.2c0-0.1,0.2-0.2,0.7-0.3
			c29.9-1.2,59.9-0.1,89.8-0.6c7.2-0.1,12.5,2,12.6,9.7c0.2,16.6,3.4,33.5-2.2,49.8c-6.3,5.8-14.2,4.7-21.7,4.8
			c-32.6,0.2-65.1,0.1-97.7,0.1c-5.1,0-10.2-0.1-15.2,0.9c-4.5,0.9-7.4,3.2-7.5,8.1c-0.1,5,2.6,7.3,7.2,8.2c5,1,10.1,0.9,15.2,0.9
			c39.2,0,78.3,0.1,117.5-0.2c2,0.2,3.6,1.1,5,2.5c2.4,4.7,2.4,9.2-1.7,13c-14.8,5.5-30.3,1.7-45.4,2.7c-5.6,0.4-11.2,0-16.8,0.1
			c-24.8,0.3-29.1-4.3-27.9,27.2c0.2,4.6,0,9.2-2.6,13.3c-1.2,1.6-2.7,2.2-4.7,1.7c-8.3-11.5-1.8-25-5.1-37.1c-8-1-7.9-1-9.1,6.9
			c-1.3,8.7,2.7,18.5-5.6,25.7C401.4,627.8,387.4,626,373.4,625.4z"/>
		<path class="st1" d="M438.9,704.6c-0.1-1.1-0.1-2.3-0.2-3.4c2.8-8.7-1.9-16.9-2.2-25.4c-1.2-27.9,4.7-55.5,3.1-83.3
			c-0.5-8.1,4-8.9,10.4-8.8c28.4,0.3,56.8-0.3,85.2,0.3c1.7,1.2,3,2.7,3.8,4.6c3.9,35.5,1.8,71,1.1,106.5c-0.1,5.8-2.5,11.1-10,10.9
			C499.7,705.1,469.2,707.9,438.9,704.6z"/>
		<path class="st5" d="M438.9,704.6c26.9,0,53.9-0.6,80.8,0.3c12.4,0.4,16.9-2.9,16.5-16c-0.9-33.5-0.3-67.1-0.3-100.6
			c5.5-5,12.3-4.3,18.9-4.3c19.4-0.1,38.7-0.2,58.1,0.1c9.6,0.1,16,4.1,15.8,14.4c-0.6,34.6-0.8,69.2-1.4,103.8c0,2-1.3,3.8-2.5,5.5
			c-53.6,0.1-107.3,0.1-160.9,0.3c-7.6,0-15.2,0.4-22.7,0.6C440.3,707.2,439.6,705.9,438.9,704.6z"/>
		<path class="st6" d="M434.9,628.1c0.8,0.5,1.7,0.7,2.6,0.6c3.2,21.2,3.5,42.4-0.2,63.5c-21.8-21-44.3-41.2-63.5-64.8
			c13.3-5.3,27.1-1.2,40.6-2.6c5.3-0.7,10.7-1.8,16,0.2C432,625.9,433.5,626.9,434.9,628.1z"/>
		<path class="st5" d="M437.3,692.3c0.1-21.2,0.1-42.3,0.2-63.5c0.3-11.6,1.1-23.3,0.6-34.9c-0.4-8.8,2.8-11.3,11.3-11.3
			c27.8,0.2,55.7-0.4,83.5-0.6c2-1.6,4.1-3.2,6.7-3.3c29.3-1.1,58.5-2,87.8,0.5c1.6,0.1,2.7,1.3,4,2.1c6.1,15.9,5.3,31.8,0.5,47.8
			c-0.2,21.7-0.2,43.3-0.7,65c-0.1,4.5,2.9,10.3-3.3,13.4c-3.4-33-0.7-66.1-1.4-99.2c-0.4-21.7-0.1-21.4-22-21.8
			c-22.9-0.4-45.8,1.5-68.7-1.1c-26.8-0.1-53.7,0.5-80.5-0.4c-11.9-0.4-14.5,4-14.2,14.9c0.6,28.9,0.3,57.7,0.1,86.6
			c0,4.9,1.6,10.2-2.3,14.6C438.2,698.2,437.8,695.2,437.3,692.3z"/>
		<path class="st7" d="M415.5,440.6c3.1-25.1,1.4-50.3,1-75.5c-0.2-12.6,3.3-17.4,16-15.8c5.9,0.8,12-0.4,18.1-0.6
			c27.1-1.2,54.2-0.8,81.4-0.2c1.7,1.6,1.8,3.3,0.4,5.1c-8.8,5.5-18.6,3-28,3.2c-17.6,0.4-35.2,0.1-52.9,0.2
			c-27.6-0.1-27.2-0.1-27.7,26.9c-0.4,18.7,2.6,37.5-2.2,56c-1.1,1.8-2.7,2.4-4.6,1.7C416.5,441.2,416,440.9,415.5,440.6z"/>
		<path class="st3" d="M532.9,349.8c-27.5-0.4-54.9-0.7-82.4-1.1c3.4-3.1,7.7-2.2,11.7-2.2c59-0.1,118.1-0.1,177.1,0
			c4.4,0,9.3-1.2,12.9,2.8l-0.5,0.7c-2.1,1.9-4.6,3-7.4,3.3c-10,0.7-20,0.3-30.1,0.5c-25.5-0.7-51,1.3-76.5-1.1
			C536,352,534.4,351,532.9,349.8z"/>
		<path class="st8" d="M348.8,469.9c0,43.2,0,86.4,0,129.6c-0.5,0-1,0-1.5,0c0-43.4,0-86.8,0-130.2
			C347.8,469.5,348.3,469.7,348.8,469.9z"/>
		<path class="st9" d="M416.7,627.7c-14.3-0.1-28.6-0.1-42.9-0.2c-0.2-0.7-0.3-1.4-0.4-2c13.8-7.5,28.8-1.8,43.1-3.6
			C418.1,623.8,418.4,625.7,416.7,627.7z"/>
		<path class="st10" d="M631.8,629.1c-0.5-15.4-1-30.8-1.4-46.1c-1.1-1.6-2.5-2.7-4.3-3.3c-23.4-1.3-46.9-0.2-70.3-0.6
			c-4.1-0.1-8.2,0.4-12.2-0.7c-1.9-0.5-3.9-1.1-4.1-3.7c-0.2-2.6,1.9-3.4,3.7-4.2c4.8-2.1,10-1.7,15.1-1.7
			c34.2-0.1,68.3,0,102.5-0.1c6,0,12.4,1.5,17.4-3.4c5.2-13.2-5-11.9-12-12.1c-22.8-0.5-45.6-0.2-68.4-0.2c-12.7,0-25.4,0.9-38-0.3
			c-12.6-1.1-20.4,2.5-22.3,15.6c-1.2,1.5-2.7,2-4.5,1.6l0,0c-5.6-6.4-4.6-13.8-3.1-21.2c4.3-20.4-0.5-41.1,2.6-61.5
			c1.1-1.5,2.1-3,3.1-4.5c1.6-2.4,3.9-3.9,6.6-4.8c28.3-3.2,56.8-0.8,85.2-1.4c19.1-0.4,19.6-0.8,20.4-19.5
			c0.3-6.5-0.8-13.4,4.6-18.6c8,0.2,16.1,0.6,24.1,0.5c19.6-0.2,34.2,7.1,40.7,26.8c0.9,1.7,1.2,3.5,1.2,5.4
			c-0.8,42.5-0.7,84.9,0,127.4c0.1,1.9-0.4,3.7-1.4,5.3c-5.3,12.6-12.8,22.8-27.9,24c-11.2-2.7-22.6-0.6-33.8-1.3
			c-1.5-0.1-2.9-0.7-4-1.8c-4.6-8.8-1.5-18.5-3.1-27.6c-0.8-4.6-0.6-12.7-9.3-6.1c-1.8,11,0.9,22.1-1.8,33c-0.7,1.5-1.6,2.9-2.6,4.2
			C633.5,628.7,632.7,629,631.8,629.1z"/>
		<path class="st11" d="M652.2,438.4c-1,13.5,5.7,30.8-2.7,39.5c-9.2,9.5-26.8,2.8-40.7,3.1c-23.2,0.6-46.5,0.2-69.7,0.2
			c-6.5-6.8-3.9-15.3-4.2-23.2c-0.5-12.7,0.2-25.3-0.5-38c-0.3-1.8-0.2-3.6,0.4-5.4c1-1.6,2.3-2.7,4-3.5c12.4-3.3,25.1-1.6,37.6-1.7
			c33.8-0.3,37.1-3.5,38-37c0.2-7.4-3-16.7,7.5-20.6c25.8,2.1,25.8,2.1,25.8,28.5c0,17.7,0,35.4,0,53.2c0,1,0.5,1.9,0.6,2
			c-2-26.3,1.5-53.6-1.7-80.7c-1.2-1.6-1.3-3.3-0.3-5c1.9,0.1,3.7,0.1,5.6,0.2C651.9,379.4,652,408.9,652.2,438.4z"/>
		<path class="st12" d="M535.6,585.5c25.9-0.1,51.7,0.3,77.6-0.5c11.2-0.4,15,3,14.8,14.5c-0.7,36-0.2,72-0.2,108
			c-1,0.1-2,0.1-3.1,0.2c0-35.5-0.3-70.9,0.2-106.4c0.1-9.8-2.8-13.4-12.9-13.2c-25.3,0.6-50.7,0.2-76,0.2
			C535.9,587.3,535.8,586.4,535.6,585.5z"/>
		<path class="st13" d="M719.5,465.8c4.8-0.9,3,2.9,3,4.7c0.1,41.1,0.1,82.2,0.1,123.4c0,3.5,0.3,7.2-3.2,9.6
			C714.7,557.6,714.5,511.7,719.5,465.8z"/>
		<path class="st14" d="M719.5,465.8c0,45.9-0.1,91.8-0.1,137.7c-0.9,0-1.8,0.1-2.7,0.2c-0.3-1.1-0.6-2.3-0.9-3.4
			c-1.4-43.7-1.6-87.4,0.1-131.1c0.3-1.2,0.7-2.3,1-3.5C717.8,465.7,718.7,465.7,719.5,465.8z"/>
		<path class="st15" d="M652.3,624.9c12.1,1.5,24.7-3,36.5,2.8c-12.2,1.8-24.5,1.2-36.8,0.4c-0.7-0.7-0.9-1.5-0.6-2.1
			C651.8,625.2,652,624.9,652.3,624.9z"/>
		<path class="st16" d="M652.3,624.9c-0.1,1-0.1,2.1-0.2,3.1c-6,0-11.9,0.1-17.9,0.1c0.1-1.1,0.1-2.2,0.2-3.3c1.2-1.1,2.5-2,4-2.6
			c4.9-1.2,9.6-1,13.4,2.8L652.3,624.9z"/>
		<path class="st10" d="M416.9,441.5c0.9-0.1,1.8-0.2,2.7-0.2c3.5-22.5,0.9-45.1,1.5-67.6c0.6-21.6-2.9-19.3,19.1-19.5
			c3,0,6-0.1,9,0.3c6.3,4.5,4.7,11.4,5.1,17.6c0.4,7.3-0.8,14.8,2.3,21.9c3.3,11,11.9,14.3,22.2,15c11.6,0.8,23.2,0,34.9,0.5
			c6.4,0.2,13.4-0.7,18.1,5.6c2.7,22.1,5.9,44.3-2,66.1c-32.6,0-65.3-0.5-97.9,0.3c-12.1,0.3-16.8-3.4-15.4-15.5
			C417.4,457.9,416.8,449.7,416.9,441.5z"/>
		<path class="st7" d="M532.8,548.3c0,7.2,0,14.4,0,21.6c-2.4,0.9-4.7,2.6-7.1,2.6c-44.2,0.2-88.3,0.3-132.5,0.3
			c-10.4,0-10.2-7.4-10.4-14.9c-0.3-9.2,4-12.6,12.9-12.6c44.7,0.2,89.3,0.1,134,0.1C531,546.1,532,547.1,532.8,548.3z"/>
		<path class="st17" d="M416.7,627.7c-0.1-1.9-0.1-3.9-0.2-5.8c0-8.4,0-16.9,0.1-25.3c0.3-14.6,3.6-16.6,18.2-11.3
			c-4.2,14.1,1.2,28.8-3,42.8C426.8,627.9,421.8,627.8,416.7,627.7z"/>
		<path class="st18" d="M450.7,518.4c-0.3,9.4-6.1,14.2-14.5,13.9c-8.3-0.3-14.2-5.3-13.6-14.8c0.6-8.8,5.8-14.5,14.5-14.1
			C445.6,503.8,451,508.9,450.7,518.4z"/>
		<path class="st19" d="M532.8,548.3c-1-1-2-2-3-2.9c0-14.2-0.6-28.5,0.2-42.7c0.7-11.7-2.6-16.1-15.2-15.8
			c-30.4,0.9-60.9,0.3-91.3-2.7c36.4,0,72.8,0,109.2,0c1.2-1.1,2.2-0.9,3,0.5C529.9,505.7,534.7,527.2,532.8,548.3z"/>
		<path class="st20" d="M404.3,505.7c3.3,0.7,5.3,2.8,6.1,6.1c0,4.1,0,8.1,0,12.2c-0.8,3.3-2.8,5.3-6.1,6.1c-4.1-1-8.1-1-12.2,0
			c-12.2-10.2-12.2-14.1,0-24.4C396.2,506.7,400.2,506.7,404.3,505.7z"/>
		<path class="st7" d="M630.8,579.1c-0.1,1.3-0.3,2.5-0.4,3.8c-32.5-0.3-65-0.7-97.5-1c0-4,0-8-0.1-12c1,0,2,0,3,0
			c0.6,0.7,1.1,1.4,1.7,2.2c1.4,7.6,7.5,5.3,12,5.3c22.2,0.2,44.3,0,66.5,0.2C621,577.7,626.1,576.2,630.8,579.1z"/>
		<path class="st21" d="M535.8,484.7c-1-0.3-2-0.4-3-0.5c0-0.9-0.1-1.9-0.2-2.8c-2.5-21.7-0.7-43.4-1-65.1c0.8-2,2.2-2.9,4.4-2.5
			c0,1,0,2.1,0.1,3.1c2.4,22.2,2.2,44.5,0.1,66.7L535.8,484.7z"/>
		<path class="st22" d="M532.9,413.8c-0.1,22.5-0.2,45-0.4,67.6c-0.9-0.1-1.8-0.2-2.8-0.3c0-22.5,0-44.9,0-67.4
			c0.5-0.3,1.1-0.5,1.6-0.8C531.9,413.3,532.4,413.6,532.9,413.8z"/>
		<path class="st23" d="M431.9,628c1.5-14.2-3.3-28.9,3-42.8c0,14.3,0,28.6,0,42.9l-1.5,0.3L431.9,628z"/>
		<path class="st24" d="M410.4,523.9c-4.3-4.1-4.3-8.1,0-12.2C414,515.8,414,519.9,410.4,523.9z"/>
		<path class="st24" d="M404.3,505.7c-4.1,4.2-8.1,4.2-12.2,0C396.2,502.7,400.2,502.7,404.3,505.7z"/>
		<path class="st25" d="M392.1,530c4.1-4.2,8.1-4.2,12.2,0C400.2,532.9,396.2,532.9,392.1,530z"/>
		<path class="st26" d="M453.3,395.5c-6.6-12.9-1.3-26.6-3-39.8c-1.1-0.7-1.4-1.4-1.1-2c0.4-0.7,0.7-1,1.1-1c27.5,0,55,0,82.5,0
			c0.9,1.9,0.5,3.4-1.2,4.7c-1.5,1-3.2,1.7-4.9,2.1c-17.3,1.7-34.6,1-51.9,0.7c-12.3-0.3-18,4-17.2,16.8
			C458.1,383.2,458.7,390.2,453.3,395.5z"/>
		<path class="st27" d="M450.3,352.6c0,1,0,2-0.1,3c-27.5,0-26.9,0-27.8,27.2c-0.6,19.5,3.9,39.3-2.9,58.5c0-24.2,0.6-48.4-0.2-72.6
			c-0.4-12.2,2.8-18.1,15.8-16.2C440.1,353.1,445.3,352.6,450.3,352.6z"/>
		<path class="st28" d="M532.8,355.6c0-1,0-2,0-3.1c0-0.9,0.1-1.9,0.1-2.8c1-0.1,2-0.1,3-0.2c1.2,1.4,2.2,3,3,4.7
			c1.9,18.3,2,36.6,0,54.9c-0.8,1.7-1.8,3.2-3,4.7l0,0c-1,0-2,0-3,0l-0.2-0.1c-1.2-1.5-2.2-3.1-3-4.9
			C529.3,391,524.8,373,532.8,355.6z"/>
		<path class="st29" d="M535.9,413.8c0-1,0-2.1,0-3.1c3.3-13.9,0.6-28.1,1.6-42.1c0.4-5.5-1.2-11.1,1.3-16.4
			c20.1-2.2,40.2-0.3,60.3-1.1c5.4-0.2,11.1,1.4,16.3-1.5c10.2,0.1,20.4,0.2,30.7,0.2c-0.1,0.9-0.1,1.8-0.1,2.7
			c-8.1,2.6-16.2,2.4-24.4,0.1c-6.1,9.2-2.6,19.5-2.9,29.3c-0.6,24.2-7.7,31.9-31.4,31.9C570.2,413.8,553.1,413.8,535.9,413.8z"/>
		<path class="st30" d="M615.5,349.6c-12.4,6.4-25.7,2-38.5,2.8c-12.6,0.8-25.3,0.2-37.9,0.2c-1,1.5-2,1.5-3,0c0-1,0-2,0-3
			C562.5,349.5,589,349.6,615.5,349.6z"/>
		<path class="st29" d="M535.8,570c0.3-21.6,0.3-21.6,22-21.6c35.6,0,71.3,0,106.9,0c21.2,0,21.2,0,21.2,21.4
			c-13,3.3-26.2,1.5-39.2,1.4C609.7,570.8,572.7,573.1,535.8,570L535.8,570z"/>
		<path class="st31" d="M535.8,570c50,0,100-0.1,150-0.1c-4.5,5.1-10.5,3-15.8,3c-37.7,0.2-75.4,0.1-113.1,0.1c-5,0-9.9,0-14.9,0
			c0,1,0,2,0,3.1c24.3,0,48.6-0.1,72.9,0.1c5.3,0,11.3-2.1,15.8,3.1c-27.7,0-55.4-0.1-83.2,0C541,579.1,535.2,579,535.8,570z"/>
		<path class="st32" d="M651.9,625.1c-5,0-10-0.1-14.9-0.1c-3.9-12.9,0.7-26.4-2.6-39.4c13.4-5.6,17.4-3.6,17.8,9.6
			C652.4,605.1,652,615.1,651.9,625.1z"/>
		<path class="st33" d="M716,469.1c0,43.7-0.1,87.4-0.1,131.1c-4-4.3-2.4-9.6-2.4-14.6c-0.1-34-0.1-68,0-102
			C713.5,478.7,711.9,473.4,716,469.1z"/>
		<path class="st34" d="M536.1,483.6c0-22.2-0.1-44.5-0.1-66.7c6.6,15,1.5,30.8,2.9,46.1c0.6,6,0.1,12.1,0.1,18.2
			C538,482,537.1,482.8,536.1,483.6z"/>
		<path class="st35" d="M634.3,585.6c5.7,12.8,1.1,26.3,2.6,39.4c-0.8,0-1.7,0-2.5-0.1C634.4,611.7,634.3,598.7,634.3,585.6z"/>
		<path class="st36" d="M621.6,352.6c8.1,0,16.3-0.1,24.4-0.1c6.1,7.1,2.8,15.7,3,23.5c0.5,20.7,0.2,41.5-2.9,62.2
			c0-21.3-0.9-42.6,0.3-63.8c0.8-14.3-2.8-21.2-18.1-19C626.2,355.7,623.9,353.6,621.6,352.6z"/>
		<path class="st7" d="M532.8,410.7c0,1,0,2,0,3c-1,0-2,0.1-3,0.1c-17.2,0-34.5,0.7-51.7-0.3c-11.3-0.7-24.4-1.3-24.8-18
			c0.1-39.8,0.1-39.8,40.3-39.8c12.1,0,24.2,0,36.3,0C534,373.8,528.5,392.5,532.8,410.7z"/>
		<path class="st37" d="M532.8,410.7c-6.7-18-1.2-36.7-3-55c1,0,2,0,3,0C532.8,374,532.8,392.3,532.8,410.7z"/>
		<path class="st38" d="M536,352.6c1,0,2,0,3,0c-1.7,19.3,3.6,39-3,58.1C536,391.3,536,371.9,536,352.6z"/>
	</g>
</g>
</svg>
