<?xml version="1.0" encoding="utf-8"?>
<!-- Generator: Adobe Illustrator 24.0.2, SVG Export Plug-In . SVG Version: 6.00 Build 0)  -->
<svg version="1.1" id="Layer_1" xmlns="http://www.w3.org/2000/svg" xmlns:xlink="http://www.w3.org/1999/xlink" x="0px" y="0px"
	 viewBox="0 0 1080 1080" style="enable-background:new 0 0 1080 1080;" xml:space="preserve">
<style type="text/css">
	.st0{fill:#5A4146;}
	.st1{fill:#EFBF87;}
	.st2{fill:#949BB4;}
	.st3{fill:#694B4B;}
	.st4{fill:#C6CEE1;}
	.st5{fill:#707486;}
	.st6{fill:#E5AF79;}
	.st7{fill:#EFBF86;}
	.st8{fill:#00C2FE;}
	.st9{fill:#5B5D6E;}
	.st10{fill:#E5AE78;}
	.st11{fill:#02AAEF;}
	.st12{fill:#E6B07A;}
	.st13{fill:#01AAEF;}
	.st14{fill:#5B4247;}
	.st15{fill:#D19B6E;}
	.st16{fill:#7F8498;}
	.st17{fill:#7F8499;}
	.st18{fill:#74788A;}
	.st19{fill:#707487;}
	.st20{fill:#00A9EF;}
	.st21{fill:#D49F72;}
	.st22{fill:#ADB7CE;}
	.st23{fill:#FBFBFC;}
</style>
<g>
	<g>
		<path class="st0" d="M258,450.2c-0.7,0-1.4,0-2.1,0c-57.8-7.5-60.9-11.7-47.7-66.9c8-33.6,13.5-67.6,16.8-101.8
			c4.8-50.1,34.8-88.3,82.7-103.9c2.5-0.8,4.6-2.7,6.9-4.1c12.8,0,25.6,0,38.3,0c2.8,1.5,5.6,3.1,8.4,4.6c1.4,5.8-1.8,9.8-5.8,12.7
			c-46,33.4-52.4,83.3-56.3,134.2c-2.8,36.1-8.5,71.7-16.9,106.9C279.4,443.9,275.2,456,258,450.2z"/>
		<path class="st1" d="M33.5,734.5c9.1-4.8,18.9-5,28.8-5c50.2,0,100.4-0.3,150.7-0.5c5.4-2.7,10.3-2.4,14.4,2.4
			c4.8,10.6,5.4,20.8-2.4,30.4c-12.4,7.2-26,4.6-39.2,4.7c-27.4,0.2-54.8,0.5-82.2-0.1c-27.7-1.2-27.7-1.2-32.5,23.3
			c-0.9,2-2.3,3.6-4.2,4.6c1-23.7-11.5-36.8-33.3-42.8C33.5,745.9,33.5,740.2,33.5,734.5z"/>
		<path class="st2" d="M224.5,760c0.2-10.1,0.4-20.2,0.5-30.3c-5.4-5.4-6.1-12.5-6.2-19.5c-0.4-35.7-0.4-71.5,0-107.2
			c0.2-17.3,7.8-30.9,20.6-42c11-9.2,24-11.4,37.8-11.5c39-0.1,77.9-0.1,116.9,0c13.7,0,26.9,2.2,37.9,11.3
			c15.1,12.6,21.3,28.7,21.1,48.2c-0.5,40,0.5,80-0.5,119.9c0.4,10.3,0.5,20.6,0,30.9c-0.2,11.5,2.3,23.4-4.9,33.9
			c-1.9,7.1,3.1,14.5-1.2,21.4c-3,3-3.5,8.7-7.8,9.7c-16.1,3.6-17.1,16.5-18.9,29.1c-0.9,1.8-2.3,3.2-4.1,4.1
			c-7.1-9.8,2.9-25.4-6.2-31.5c-11.6-7.7-27.4-2.5-41.3-2.7c-30.3-0.5-60.6,0.6-90.9-0.5c-15.2-0.6-19,4.8-18.9,19.2
			c0.1,15.2,2.4,30.9-3.1,45.8c-9.2-8.8-6-20.3-6.6-30.9c1-13.7,1.9-27.1-15.6-32.1c-4.1-1.2-5.5-6.1-7.7-9.7
			c-0.4-7.4-0.7-14.9-1.1-22.3C216.9,782.2,217.6,771.1,224.5,760z"/>
		<path class="st3" d="M258,450.2c12.8,0.5,15.9-7.7,18.5-18.4c11.5-45.6,16-92.3,20.4-138.9c4.3-46.2,20.8-84,60.6-109.9
			c1.6-1.1,2.5-3.3,3.8-5c46.6,12.3,79.8,50.6,84.9,100c4.7,45.1,11.2,89.8,25.3,133c4.9,15.1-0.1,24.8-15.6,28.7
			c-23.3,5.8-46.6,11.5-69.9,17.3c-3.6,5.1-9,6.9-14.8,7.2c-23.4,1.2-46.8,1.2-70.2,0c-5.7-0.3-11.2-1.9-14.7-7.2
			C277.8,451.2,266.3,457.3,258,450.2z"/>
		<path class="st4" d="M472,722.8c37.7,8.1,75.8,1.5,113.7,3.4c7.7,0.4,6.1-4.6,6-9.9c-0.5-38.9-0.5-77.7-0.6-116.6
			c0-27.8,2.1-29.9,30.1-30.9c20.3-12.4,42.7-4.3,64.1-6.4c31.1-0.7,62.2-0.7,93.2-0.1c31.6,0.6,40.5,9.6,40.9,40.6
			c0.3,20.4,0.8,40.9-0.4,61.3c0.2,10.6,0.5,21.1-0.1,31.7c1.7,19.9-4.1,34.7-25.9,39.2c-16.8,3.2-33.8,1.9-50.7,1.9
			c-84,0.1-167.9,0.1-251.9,0c-10.5,0-21.2,1.1-31.4-3.1c-2.7-1.9-6.4-3.9-3.4-7.8C460,720.7,465.7,719.5,472,722.8z"/>
		<path class="st5" d="M813.2,666.6c-0.2-23.4-1.3-46.7-0.3-70c0.9-20.8-8.7-27.6-28-27.4c-33.3,0.3-66.6-0.3-100-0.6
			c-19.3-19.2-41.1-36.1-55.8-59.6c15.4-26.7,44.8-24.4,68.9-32.9c8.1,3,14.3,8.5,20.5,14.4c38.6,36.7,87.8,36.2,125.9-1.1
			c5-4.9,9.4-10.5,16.2-13.2c25.4,7.7,55.1,6.1,71.5,33.1c-6.1,11.6-16.9,19-26,27.7c-16.4,15.6-25,33.7-23.6,56.6
			c0.8,12.7,0.4,25.4,0,38.2c-0.8,31.2-10,40.4-41,40.7C831.8,672.4,821.6,673.9,813.2,666.6z"/>
		<path class="st6" d="M447.8,793.8c-0.1-11.3-0.2-22.6-0.3-33.8c8-7.9,18.3-6.7,28.1-6.7c161.5-0.2,323-0.2,484.5-0.1
			c8.5,0,17.1-0.1,25,3.6c11.5,10.1,9.2,22.1,5,34.5c-1,1-1.9,2-2.9,3c-7.8-0.4-15.5-1.2-23.3-1.2C799,793,634,793,469.1,793.1
			C462,793.1,454.9,793.6,447.8,793.8z"/>
		<path class="st7" d="M987.5,760.1c-180,0-360-0.1-540-0.1c-0.3-10.1-0.5-20.2-0.8-30.3c2.8-1.9,5.6-2.1,8.3,0.2
			c113.7-0.1,227.3-0.1,341-0.2c24.7-8.5,50.9-3.6,76-8.7c8-0.5,16.1-1.6,22,5.8c32.1,6.2,64.5,1.2,96.7,2.6
			c11.3,0.5,22.6,0.1,33.8,0.1c10.5,0,23.2-1.9,25.3,12.4c2,13.8-8.1,18-20,18.3c-8,0.2-8.3,5.6-8.7,11.6
			c-0.5,7.6,2.1,15.6-3.1,22.5c-0.8-0.6-1.7-1.2-2.5-1.8C1013.9,775,1004.4,764.4,987.5,760.1z"/>
		<path class="st8" d="M430.3,564.3c-11.8-7.2-24.5-9.6-38.3-9.4c-37.4,0.4-74.7,0.4-112.1,0c-13.8-0.2-26.5,2.2-38.3,9.5
			c-4.9,4.3-9.7,2.1-13.3-1.3c-15.1-14.6-32.6-27-43-46c8.8-15.7,24.6-19.7,40.2-24.3c14.1-4.2,28.2-8.2,42.3-12.3
			c45.4,6.1,90.7,6.2,136.1-0.1c18.7,5.5,37.5,10.6,56,16.5c11.5,3.6,21.7,9.6,27.6,20.9c-12,16.7-27.9,29.7-42.5,43.9
			C441.2,565.4,436.3,569.5,430.3,564.3z"/>
		<path class="st7" d="M876.1,321.5c3.2,41.4-4.3,78.5-40.6,104.7c-9.9,7.1-3.2,18.6-6.3,27.6c-9-8.3-18.2-10.9-31.1-7.4
			c-18.4,4.9-37.8,5.9-53.5-9.2c-19.1-31.1-21-65.3-17.8-100.2c2.6-27.9,21.5-42.7,49.3-39.6c32.1,3.6,64.9,4.3,94.9,19
			C872.6,318.1,874.4,319.8,876.1,321.5z"/>
		<path class="st3" d="M876.1,321.5l-1.2-0.2l-1.2,0.4c-21.5-28.9-53.2-38.6-86.3-43.8c-18-2.8-36.4-4.9-54.9-3.5
			c-28.6-7.3-35.8-16.7-35.4-46.1c0.1-5.6,0.3-11.3,0.3-16.9c52.4-36.1,111.7-17.8,168.1-20c17.6-0.7,25.2,15.4,26.3,32.9
			C893.8,258,888.1,290.3,876.1,321.5z"/>
		<path class="st9" d="M894.1,726.8c-7.9,0.1-15.8,0.2-23.6,0.3c-0.6-19.2-10.3-27.1-29.5-25.3c-9.4,0.8-19.9,2.1-27.9-5.8
			c0.1-9.8,0.1-19.6,0.2-29.3c2.8-0.1,5.7-0.1,8.5-0.2c55-0.3,57.7-0.4,54.2-56.2c-3.1-47.9,16.9-78.9,56.3-101.1
			c8,9.2,8.3,20.3,8.3,31.7c-0.1,39.4-0.2,78.9,0,118.3C940.6,692.5,925.5,715.2,894.1,726.8z"/>
		<path class="st10" d="M731.8,270.8c42.9-4.6,83.7,2.5,121.5,23.6c10.2,5.7,20.4,13.2,20.5,27.3c-33.8-13.7-70.2-14.8-105.6-20.1
			c-19.3-2.9-34.7,15.3-36.3,38.7c-2.3,33.7,1.9,66.1,17.1,96.6c-7.1,5.5-12.4,3.4-16.5-4c-30.9-22.8-50.7-51.2-47.7-91.8
			c0.4-6-2.2-12.1-3.4-18.2C691.5,299.2,706.5,280.1,731.8,270.8z"/>
		<path class="st11" d="M430.3,564.3c16.7-4.6,23.8-20.6,36.2-30.3c7-5.5,11.1-14.7,21.1-16.3c8.2,10.8,8.7,23.5,8.8,36.1
			c0.2,38.7,0,77.4,0.1,116.1c0,21.4-5.1,40.4-24.4,52.8c-5.7,2.4-11.3,4.7-17,7.1c-2.8-0.1-5.6-0.1-8.3-0.2
			c0.1-38.3-0.6-76.5,0.5-114.7C447.7,595.4,443.8,578.5,430.3,564.3z"/>
		<path class="st10" d="M860.6,476c-29.9,55.6-106.7,59.8-144.4,20.4c-6.3-6.6-12.2-13.6-18.2-20.4c11.2-4.6,24.5-4.2,33.2-14.3
			c32.9,9.5,65.8,9.2,98.8,0.5C838.2,471.3,850.8,470.6,860.6,476z"/>
		<path class="st12" d="M224.5,760c0,11.1,0,22.2,0,33.3c-42.3,0.3-84.6,0.6-126.8,1c-0.9-0.9-1.8-1.7-2.7-2.6
			c-4.6-10.9-5.2-21.6,2.3-31.6C139.7,760,182.1,760,224.5,760z"/>
		<path class="st13" d="M403.9,480.4c-12.2,15.6-30.3,6.8-45.2,9.6c-30.4,5.7-61.6,3.3-90.9-9.5c9.2-5.4,16.8-12.1,18.5-23.4
			c33.2,2.4,66.5,2.4,99.7,0C387.2,468.5,395.4,474.5,403.9,480.4z"/>
		<path class="st14" d="M731.8,270.8c-18.9,15.4-35.3,33.1-50.4,52.1c-7-21.9-13.9-43.9-12.4-67.3c1.3-19.9,7.7-36.6,28.4-44.2
			c6,0.8,7.4,3.2,6.7,9.9C700.3,254.8,703.4,259.7,731.8,270.8z"/>
		<path class="st10" d="M97.7,794.3c0,29-0.2,57.9,0.1,86.9c0.1,11.3-3,20.8-15.5,20.8s-15.6-9.5-15.5-20.8c0.3-29,0.1-57.9,0-86.9
			l1.5-0.6c9.5-7.1,19-7,28.6-0.2L97.7,794.3z"/>
		<path class="st10" d="M1018,794.4c0,29-0.2,57.9,0,86.9c0.1,11.3-3,20.8-15.5,20.8s-15.6-9.5-15.5-20.8
			c0.3-28.9,0.1-57.9,0.1-86.9l0.8-0.7c9.6-6.8,19.1-6.9,28.6,0.2L1018,794.4z"/>
		<path class="st15" d="M830.1,462.2c-27.1,18.2-72.8,18-98.8-0.5c0.4-9.6,0.8-19.2,1.2-28.7c5.1,2.9,10.5,4.6,16.5,4
			c17.8,8.8,37.1,9.7,54.5,3c16.9-6.4,23.4-2.4,25.6,13.8C829.5,456.6,829.8,459.4,830.1,462.2z"/>
		<path class="st9" d="M629.1,508.9c20.7,17.9,42.4,35,55.8,59.7c-21.2,0.1-42.5,0.1-63.7,0.2C623.9,548.8,614.7,527.3,629.1,508.9z
			"/>
		<path class="st16" d="M254.5,853.3c0.3,11.7,0.7,23.4,1,35.1c-1,10.8-8,14.7-17.5,13.3c-10.2-1.5-13.3-9.2-13-18.7
			c0.3-9.8,0.4-19.7,0.6-29.5C235.2,846.2,244.8,846.2,254.5,853.3z"/>
		<path class="st17" d="M446.2,857.7c0.2,9.7,0.8,19.4,0.5,29.1c-0.3,10.1-6.5,15.5-16.1,15.1c-8.6-0.3-14.2-5.6-14.5-14.8
			c-0.3-9.7-0.2-19.4-0.2-29.2l2-0.5C427.4,850.1,436.8,850.9,446.2,857.7z"/>
		<path class="st18" d="M446.2,857.7c-9.4,0-18.9-0.1-28.3-0.1c-10.5-27.7,10-34.5,28.8-42.4C447.8,829.4,448.5,843.6,446.2,857.7z"
			/>
		<path class="st19" d="M254.5,853.3c-9.6,0.1-19.3,0.1-28.9,0.2c0-12.6,0-25.2,0-37.9c2.8,1.9,5.6,5.5,8.5,5.5
			C258.4,821,255.7,837.5,254.5,853.3z"/>
		<path class="st20" d="M185.3,517.1c15.1,9,25,23.6,38,35c5.6,4.9,9.5,12.3,18.3,12.4c-13.6,14.2-17.5,31.1-16.9,50.5
			c1.1,38.2,0.3,76.5,0.3,114.7c-4-0.2-8-0.5-12.1-0.7c-26.3-10.2-37.1-29.5-36.4-57.6c1-40.2,0.1-80.4,0.4-120.5
			C177,539.1,175.7,526.6,185.3,517.1z"/>
		<path class="st21" d="M96.8,793.6c-9.5,0.1-19,0.2-28.6,0.2c-0.1-1.4-0.4-2.7-0.4-4.1c-1-29.7-1-29.7,29.5-29.6
			C97.1,771.2,97,782.4,96.8,793.6z"/>
		<path class="st22" d="M813,696c12.5,0.1,25,0.2,37.5,0.4c24.7,0.4,29.3,7.5,20,30.7c-24.6,6.2-49.6,2-74.4,2.6
			C815,725.1,813.4,710.3,813,696z"/>
		<path class="st23" d="M700.5,666c-9.1-1.7-15.2-7-15-16.7c0.2-9.5,5.9-16.3,15.8-15.8c9.2,0.5,16.2,6.6,16.1,16.2
			C717.3,659.2,709.9,664,700.5,666z"/>
		<path class="st21" d="M1016.6,793.8c-9.5-0.1-19.1-0.2-28.6-0.2c-0.2-11.2-0.3-22.3-0.5-33.5C1018.3,760,1018.3,760,1016.6,793.8z
			"/>
	</g>
</g>
</svg>
