<?xml version="1.0" encoding="utf-8"?>
<!-- Generator: Adobe Illustrator 24.0.2, SVG Export Plug-In . SVG Version: 6.00 Build 0)  -->
<svg version="1.1" id="Layer_1" xmlns="http://www.w3.org/2000/svg" xmlns:xlink="http://www.w3.org/1999/xlink" x="0px" y="0px"
	 viewBox="0 0 1080 1080" style="enable-background:new 0 0 1080 1080;" xml:space="preserve">
<style type="text/css">
	.st0{fill:#E7F3FD;}
	.st1{fill:#E5E7EA;}
	.st2{fill:#EAF6FD;}
	.st3{fill:#C6E1FB;}
	.st4{fill:#88929F;}
	.st5{fill:#FEFEFE;}
	.st6{fill:#8892A0;}
	.st7{fill:#F1F3F5;}
	.st8{fill:#87919F;}
	.st9{fill:#E29855;}
	.st10{fill:#EEBE9A;}
</style>
<g>
	<g>
		<path class="st0" d="M968,216.7c8.9,8,5.2,18.6,5.3,28c0.2,228.1-0.2,456.3,0.7,684.4c0.1,24.6-7.6,29.8-30.7,29.7
			c-218.8-0.8-437.5-0.5-656.3-0.5c0-286.9,0-573.8,0-860.7c3.8-1.6,6.8-0.6,8.9,3c7.2,14.4,5.1,30,5.1,45.2
			c0.2,197.4,0.1,394.7,0,592.1c0,18.1,0,36.1,9.1,52.6c-15.4,43.8-7.5,89.1-8.3,133.8c-0.2,11.7,6.2,18.2,18.1,19.2
			c8.1,0.6,16.2,0.8,24.3,0.8c190.9,0,381.7,0,572.6,0c7.2,0,14.4-0.2,21.6-0.6c13-0.7,19.5-7.3,20.3-20.3
			c0.5-9.9,0.6-19.8,0.6-29.7c0-210.1-0.1-420.2,0.2-630.3C959.5,247.4,955.8,230.4,968,216.7z"/>
		<path class="st1" d="M454.4,53.5c0.1-1.6,0.2-3.1,0.2-4.7c9,0,18,0,27,0c0,1.6,0,3.2,0.2,4.8C472.6,62.1,463.5,62.2,454.4,53.5z"
			/>
		<path class="st2" d="M292.5,97.6c35.5-0.1,71-0.1,106.5-0.2c7.2,9.6,4.4,20.8,4.4,31.4c0,60.4,0,120.8,0,181.2
			c0,9.9-0.4,19.9,1.8,29.6c3.6,16.8,13.2,28,31.1,28.4c18.4,0.4,33.1-8.7,34.7-27.3c5.1-60.8,2.1-121.7-0.7-182.7
			c-9.5,8-7.3,18.1-7.3,27.4c-0.3,38.8-0.1,77.5-0.2,116.3c0,9.9,0.1,19.9-2.8,29.5c-3.4,11.1-9.3,20.1-22.3,19.7
			c-12.8-0.3-18.9-8.8-21.7-20.4c-1.5-6.2-1.8-12.5-1.8-18.8c-0.3-55.9-0.7-111.8,0.2-167.7c0.3-19.9,1.6-40.3,22.8-51.3
			c19.8-4.5,39.6-3.9,59.5-0.8c18.4,6.7,22.5,23.4,23.3,39.4c3.4,68.4,5.3,137-0.6,205.3c-4,46.3-36.3,75.6-76.3,77.2
			c-48.3,2-85.1-33.2-87.6-86.3c-2.1-45.9-0.3-91.9-0.8-137.9c-0.1-10.6,2.2-21.6-4.5-33.2c-8.7,6.9-6.4,16.1-6.5,24
			c-0.2,50.5,1.1,101-0.4,151.4c-1.9,63,56.4,98.3,94.7,98.2c51-0.1,94.1-43.7,94.8-98.2c0.9-68.5,0.3-137,0.2-205.5
			c0-9.7-2.7-19.9,3.6-28.9c66.4,0.1,132.8,0.2,199.2,0.3c6.2,3.8,11.8,8.3,15.2,14.9c39.6,78.2,56.8,160.6,46.4,248.1
			c-0.9,8-2.2,16.2-9.6,21.5c-25.2,9.4-51.4,3.3-77,5c-22.2,1.4-44.7-2.9-66.5,3.3c-6.3,16.2,6.6,12.9,14.1,13.1
			c28.8,0.7,57.6,0.2,86.5,0.3c5.4,0,10.8-0.3,16.2,0.3c10.4,1.2,24.3-0.4,24.9,14.4c0.6,15.9-11.9,20.7-25.7,21.6
			c-38.6,2.4-77.3-2.8-115.7,2.9c-2.1,1.7-4,3.6-5.5,5.8c-1.3,15.8,10.5,14.2,19.9,14.4c26.8,0.6,53.7-0.5,80.6,0.6
			c11.4,0.5,28.5-3.7,29,14.8c0.6,19.7-15.7,20.9-30.7,21.4c-31.3,1-62.6-1.8-93.7,1.7c-10.9,6.3-11.5,12.9-0.5,19.9
			c23.1,3.5,46.2,0.4,69.2,1.7c10.3,0.6,23.2-2.2,28.1,9.9c4.3,10.7-3.1,20.5-9.1,29.3c-4,5.8-7.9,12-15.4,14.1
			c-31.4,1.5-62.9,0.1-94.3,0.2c-20.5,0-29.1,8.7-29.2,29.1c-0.5,85.5,8.7,170.8,5.8,256.4c-0.8,22.7,16.1,22.4,31.8,22.5
			c79.1,0.2,158.2-0.1,237.4,0.2c13.3,0,27.1-1.8,39.3,6.3c-0.1,19.9-16.2,14.8-26.3,15.1c-42.2,1.4-84.4,0.5-126.6,0.6
			c-44,0-88,0.3-132-0.1c-41.1-0.3-45.7-5.1-46-47.3c-0.3-37.8-0.5-75.5,0.1-113.3c0.3-17.2-4.5-20.8-19.9-11.9
			c-55.1,31.6-114.4,52.1-177.2,61.2c-23.5,3.4-47.9,9.2-70.5-5.1c-21.1,1-16.2-14.8-16.2-26.4c-0.2-96.2-0.1-192.5-0.1-288.7
			C292.5,349.5,292.5,223.5,292.5,97.6z"/>
		<path class="st3" d="M789.4,377.8c10.6-76.1,0.3-149.8-26.5-221.3c-7.5-20.1-17.9-39.2-27-58.7c37.7,0,75.4-0.1,113-0.1
			c14.2,23.4,7.4,49.3,8.2,74.2c1.2,35.4,1.3,35.5,36.7,36.7c24.8,0.8,50.7-5.8,74.1,8.1l0,0c0,235.2-0.4,470.4,0.6,705.5
			c0.1,25.4-7.5,31.3-31.8,31.2c-204.2-0.9-408.4-1-612.6,0.1c-26.7,0.1-33.9-8.1-32.2-33.6c2.1-33.2,1.5-66.7,0.1-100
			c-0.7-14.9,4.7-23.4,16.8-29.5c93.6,3.9,178.4-24.1,257.7-71.6c13.7-8.2,18.3-7.5,18.1,9.7c-0.6,49.5,0,99-0.4,148.5
			c-0.2,13.9,2.2,22,18.8,21.9c97-0.5,194.1-0.3,291.1-0.3c5.5,0,10.8-0.4,14.5-5.3c-4-10.4-3.2-21.2-3.2-32
			c0-81.9,0.2-163.7-0.1-245.6c-0.1-36.2-2.5-38.5-38-38.7c-39.5-0.3-79-0.1-118.6-0.1c-9.8,0-19.8,1.8-29-3.5
			c1.2-14.8,16.5-23.4,16.9-40.8c-34-7.6-70,5-103.9-6.8c10.7-11.3,24.8-8.9,37.9-8.9c68.1-0.4,136.3,0,204.4-0.3
			c10.4,0,21.5,2.6,31.5-4.9c-10-7.5-21.1-4.8-31.5-4.9c-68.1-0.3-136.3,0.1-204.4-0.3c-13.1-0.1-27.3,2.4-37.9-8.9
			c31.3-10.6,63.6-2,95.3-4.7c7.1-0.6,14.3-0.3,21.5-0.1c9.1,0.2,13-5.2,13.8-13.1c1.3-13.3-9.3-8.1-14.8-8.2
			c-32.2-0.5-64.4-0.1-96.7-0.3c-26.8-0.2-29-4.2-19.5-32.6c8.7,10.8,18.4,18.8,33.7,18.8c75.5,0,150.9,0.2,226.4-0.2
			c5,0,10.8,0.9,14.4-5.2c-9.5-7.4-20.6-4.6-31-4.7c-68.3-0.3-136.6,0-204.8-0.3c-13.3,0-27.3,1.6-38.4-8.6
			c34.9-10.9,70.7-1.4,105.8-5.3c15-1.7,41.4,10.6,41.2-14c-0.1-15.7-25.7-6-39.5-6.8c-29.4-1.7-59-0.3-88.5-0.6
			c-26.7-0.2-29.1-4.4-19.4-32.5c8.6,10.9,18,19,33.5,18.9c75.3-0.2,150.6,0.1,225.9-0.3c5.2,0,10.8,0.4,16.6-6.1
			c-26-8.3-51.4-2.2-76.2-4.4C817.7,385.9,801.5,391.2,789.4,377.8z"/>
		<path class="st4" d="M437.3,97.1c-12.7,10.1-14.3,24.5-14.4,39c-0.2,61.3-0.2,122.6,0,183.9c0,11.4-2.2,26.2,14.9,26.4
			c16.7,0.1,15.8-14.5,15.9-26c0.3-52.3,0-104.6,0.2-156.9c0-10.2-3.2-22.7,14.5-22.4c18.2,0.4,13.4,13.6,13.5,23.3
			c0.3,55,0.5,110,0,165c-0.2,31.1-17.8,49.6-45.1,49.3c-25.2-0.3-42-19.2-42.2-49.2c-0.3-67.6-0.3-135.2,0.1-202.9
			c0.1-9.8,2.7-19.5,4.2-29.2c12-22.8,30.1-38,55.5-43.9c9.1,0,18.3,0.1,27.4,0.1c25.1,6,43,21.2,54.9,43.8
			c1.5,10.6,4.3,21.2,4.4,31.9c0.4,68.5,0.6,136.9,0,205.4c-0.5,57.5-46.7,103.4-102.8,103.5s-102.4-45.8-102.9-103.1
			c-0.5-57.7-0.2-115.3,0-173c0-9.3-3.1-20.5,13-21.1c17.6-0.6,15.1,11.3,15.1,21.9c0.1,55.9-0.6,111.7,0.3,167.6
			c0.5,35.1,23.5,65.8,52.8,74.2c30.9,8.8,61.8-1.9,81.3-28.3c11.8-16,15-34.6,15.1-53.6c0.3-60.4,0.5-120.7-0.1-181.1
			c-0.2-15.9,0.1-32.8-14.4-44.4C478.1,85.9,457.7,86.9,437.3,97.1z"/>
		<path class="st2" d="M968,216.6c-33,0-65.9-0.5-98.9,0.3c-15,0.3-20.5-5.2-20.2-20.2c0.7-33,0.1-66,0.1-99
			C891.1,134.9,930.5,174.8,968,216.6z"/>
		<path class="st5" d="M719.9,573.4c32.7-9.8,66.1-3,99.2-4.5c24.3-1.1,48.6,0.1,72.9-0.3c14.4-0.2,21.8,5.3,21.8,20.5
			c-0.2,97.4,0,194.8-0.3,292.2c0,4-3.1,8-4.8,12c-97.9,0-195.8-0.2-293.7,0.1c-14.7,0-26.5,0.1-25.5-20.5
			c4.5-91.6-5.5-183-5.5-274.6c0-21.7,6-32,29-30C648.5,571.4,684.7,563.3,719.9,573.4z"/>
		<path class="st6" d="M632.9,497.5c88.9,0,177.7-0.1,266.6,0.4c10.1,0.1,25.6-6.1,25.6,13.8c0,19.8-15.4,13.7-25.6,13.8
			c-88.8,0.4-177.7,0.3-266.6,0.4C627,516.4,627,507,632.9,497.5z"/>
		<path class="st6" d="M789.4,377.8c38.5,0.4,77,0.7,115.5,1.1c9.8,0.1,20.4-1.6,20.3,13.9c0,15.1-10.2,14.1-20.2,14.1
			c-84.2-0.1-168.4-0.8-252.6,0.1c-23.4,0.3-20.8-13.3-19.8-27.9C684.9,378.6,737.2,378.2,789.4,377.8z"/>
		<path class="st7" d="M437.3,97.1c24.6-20.9,36.9-20.8,61.2,0.2C478,97.3,457.7,97.2,437.3,97.1z"/>
		<path class="st6" d="M632.9,438.2c89.1,0,178.3-0.1,267.4,0.2c10.4,0,25.5-5.4,24.8,14.7c-0.6,18-14.3,12.9-23.9,12.9
			c-81,0.2-162.1-0.8-243.1,0.4c-22.5,0.3-29-7.7-25.5-28C632.5,438.5,632.9,438.2,632.9,438.2z"/>
		<path class="st8" d="M437,850.9c-26.9,0-53.8,0.1-80.7,0c-9.6-0.1-20.4,2-20.9-13.5c-0.5-15.3,9.4-14.6,19.6-14.6
			c55.6,0,111.2,0,166.8,0c10.3,0,20-0.6,19.5,14.7c-0.5,15.6-11.4,13.4-20.9,13.4C492.6,851,464.8,850.9,437,850.9z"/>
		<path class="st8" d="M440.4,882.2c27.8,0,55.6,0.1,83.4-0.1c9.9-0.1,17.6,1.1,17.5,14.1c-0.1,12.9-7.6,14.2-17.6,14.2
			c-57.4-0.1-114.8-0.2-172.2,0c-11.1,0-16.6-3.6-16.2-15.6c0.4-11.6,7.4-12.7,16.2-12.6C381.2,882.2,410.8,882.2,440.4,882.2z"/>
		<path class="st9" d="M811.7,752.1c15.9,4.2,26.3,15,33.5,28.9c20.2,39.2,9.7,57.2-33.2,57.2c-49.3,0-98.6-0.4-147.8,0.3
			c-14.9,0.2-20.3-4.2-20.3-19.8c0.1-34.4,11.3-53.4,42.5-66.9C728.2,745.9,769.9,745.4,811.7,752.1z"/>
		<path class="st10" d="M811.7,752.1c-41.7-0.1-83.5-0.2-125.2-0.2c11.4-10,26-1.7,40-7.2c-26.9-19.9-25.2-48.4-22-75.9
			c2.7-23.2,19.3-37.5,41.8-38.8c22.4-1.3,39.6,10.2,45.1,33.9c6.8,29.3,5.2,56.8-19.6,79.7C784.4,751.5,800.6,741.1,811.7,752.1z"
			/>
	</g>
</g>
</svg>
