<?xml version="1.0" encoding="utf-8"?>
<!-- Generator: Adobe Illustrator 24.0.2, SVG Export Plug-In . SVG Version: 6.00 Build 0)  -->
<svg version="1.1" id="Layer_1" xmlns="http://www.w3.org/2000/svg" xmlns:xlink="http://www.w3.org/1999/xlink" x="0px" y="0px"
	 viewBox="0 0 1080 1080" style="enable-background:new 0 0 1080 1080;" xml:space="preserve">
<style type="text/css">
	.st0{fill:#0189B1;}
	.st1{fill:#FEFEFE;}
	.st2{fill:#CED7DB;}
	.st3{fill:#B3BBBF;}
	.st4{fill:#8FA3AD;}
	.st5{fill:#7D8E96;}
	.st6{fill:#DDB16F;}
	.st7{fill:#FECB80;}
	.st8{fill:#DADADA;}
	.st9{fill:#F7F8F8;}
	.st10{fill:#F8F8F8;}
	.st11{fill:#FEA92C;}
	.st12{fill:#FDA92E;}
	.st13{fill:#CFD6D8;}
	.st14{fill:#DADBDB;}
	.st15{fill:#D8D9D9;}
	.st16{fill:#D9DADA;}
	.st17{fill:#F7F7F7;}
	.st18{fill:#F6F7F7;}
	.st19{fill:#DE9224;}
</style>
<g>
	<g>
		<path class="st0" d="M529.3,172.3c233.8-1.2,380,163.3,391.4,334C936.9,748.4,748.1,887.4,592,900.4
			c-91.8,7.6-175.5-15.7-249.3-68c-80.4-57-129.5-138.2-145.7-234.5c-18.7-111.5,9.2-215.3,84.1-300.4
			C352.2,216.9,444.3,173.8,529.3,172.3z"/>
		<path class="st1" d="M550.5,197.8c197.7,2.1,344.6,151.3,345.1,338.6c0.5,190.4-149,338.9-337.8,338.5
			c-191.1-0.3-321.4-144.1-337.5-308.5c-9.1-92.7,17.3-176,76.9-246C363.7,242.7,450.2,201.5,550.5,197.8z"/>
		<path class="st2" d="M562.9,335c45.4-0.1,90.8-0.7,136.3-0.1c28.4,0.3,54,21.5,60,47.6c6.8,29.9-6.8,58.4-34.2,72.2
			c-4.6,2.3-8.9,5.2-13.3,7.8c-2.8,3.3-6.6,3.6-10.4,3.4c-40.3-2.8-80.6-0.5-120.9-1.4c-6.1-0.1-12.4,0.2-17.8-3.8
			c-4.1-5.3-3.8-11.5-3.9-17.6c-0.2-30.2-0.2-60.4,0-90.6C558.7,346.4,558.2,340,562.9,335z"/>
		<path class="st3" d="M562.9,335c0.1,41.6,0.3,83.2,0.4,124.8c-5.3,5.6-12.3,4.1-18.8,4.1c-35.5,0.2-71,0.1-106.5,0.1
			c-5.2,0-10.4-0.2-15.6,1c-2.9,0.2-5.5-0.2-7.6-2.4c-8.7-8.1-21-10.1-29.5-19.1c-18.8-20-24.6-43-14.5-68.1
			c10-24.9,29.5-39.9,56.8-40.4C472.7,334.2,517.8,334.9,562.9,335z"/>
		<path class="st4" d="M420.6,462.7c4.3-4.4,9.8-2.7,14.8-2.7c42.6-0.2,85.3-0.2,127.9-0.2c34,0.1,67.9,0.3,101.9,0.4
			c15.5,0,31-0.2,46.4,2.3c24.2,5.6,40.7,20.2,46.8,44c6,23.8,1.6,45.9-18,63c-5.4,0.9-8.3-3.4-12-6c-13.2-9.3-21.1-6.9-27.8,8.4
			c-0.6,1.9-1.4,3.7-2.8,5.2c-3.7,1.6-6.2-0.8-8.9-2.6c-17.9-11.9-22.3-10.7-31.9,8.6c-0.7,1.2-1.5,2.1-2.6,2.9
			c-6.5,0.6-12.3-4.3-18.9-2.3c-4,1-7.5,3.1-11.4,4.2c-5.8,1.3-11.6,1.4-17.5,0.3c-4.8-1.2-8.8-3.9-11.7-7.6
			c-9.6-12.5-24.5-18.8-34.8-30.5c-2.9-20.8-0.9-41.7-1.4-62.5c-0.4-19.4-0.9-20.3-19.9-20.3c-32.7-0.1-65.4,0.1-98.2-0.1
			C433.8,467.2,426.3,468.5,420.6,462.7z"/>
		<path class="st3" d="M420.5,711c-27.2-3.1-50.8-26-53.8-52.2c-3.4-29.9,12.2-57.6,38.1-67.7c4.3-1.7,8.5-3.6,12.8-5.4
			c3.4-4.1,8.2-4.6,12.9-4.6c38.6,0,77.3-1.3,115.9,0.7c10.8,2.9,17.6,9.7,20.4,20.5c2.2,32.1,1,64.3,0.7,96.5
			c-0.1,6.6-1.1,13.6-10.7,13.4C511.3,711.4,465.9,713.6,420.5,711z"/>
		<path class="st5" d="M549.2,585.2c-43.9,0.2-87.8,0.4-131.7,0.6c-32.4-8-51.1-31-51-62.7c0.1-29.5,19-53.2,48.2-60.4
			c1.9,0,3.9,0.1,5.8,0.1c42.7,0,85.5,0.4,128.2-0.1c10.9-0.1,15.1,2.5,14.7,14.2c-0.9,25.6-0.3,51.3-0.3,76.9
			C551.7,561.2,549.6,572.8,549.2,585.2z"/>
		<path class="st6" d="M549.2,585.2c-6-19.1-3.5-24.9,14-31.4c12.8,0.2,19,10.3,27,17.7c5.1,4.7,10.1,9.5,15.2,14.2
			c6.7,3.5,13.4,8.7,20.1,0c2.3-2.9,5.5-4.4,9-5.4c42.6,40.4,83.2,82.6,124.8,124c3.2,3.2,7.1,6.8,3.6,12.3
			c-28.4,32.7-49.9,38.9-90.7,25.4c-9.9-3.3-19.5-7.3-29-11.5c-15.8-7-31.9-12.3-49.4-11c-7.3,0.5-13-1.6-16.6-8.3
			c-4.5-7.9,0.2-13.8,4.9-19c13.8-15.3,31.5-19.8,52.2-17.9c-19.4-19.4-38.6-38.7-58-57.9c-5.1-5-10-10.1-12.8-16.8
			C559.5,593.7,554.7,589,549.2,585.2z"/>
		<path class="st7" d="M762.8,716.5c-0.2-6.5-5.5-9.6-9.4-13.6C717,666.4,680.5,630,644.2,593.5c-3.9-3.9-9.3-6.9-9.7-13.4
			c7.5-2.1,13.8,0.7,19.8,4.9c11.5,5.6,17.9,16.9,27.4,24.8c3.8,3.2,6.7,7.4,10,9.7c-12-11.7-24.4-24.4-36.9-37
			c6.4-22.4,19.1-26.2,36-10.8c2,1.9,4.4,3.4,6.5,5.1c12.4,6,18.8,18.7,28.3,25.3c-8.6-9.3-20.3-18-27.8-30.7
			c4.6-18.2,18.1-23.1,32-11.4c3.6,3,7,6.3,10.6,9.4c10.8,11.2,21.5,22.5,32.5,33.5c30,30.3,32.2,62.5,6.1,95.9
			C774,705.1,769.7,712.1,762.8,716.5z"/>
		<path class="st2" d="M563.3,599.3c23.6,23.1,47.1,46.3,70.7,69.5c2.6,2.6,5.1,5.4,8.8,9.3c-29.6-2.1-56.6-1.5-65.7,32.9
			c-48.1,5.4-96.3,1.3-144.4,2.5c-4.1,0.1-8.6,1-12.1-2.6c43.1-0.1,86.2-0.5,129.3,0c10.6,0.1,13.9-3,13.7-13.7
			C562.8,664.7,563.3,632,563.3,599.3z"/>
		<path class="st8" d="M535,391.3c4.2,13.6-0.7,23.5-12.8,25.6c-11.6,2.1-19.6-5.3-21.4-19.9C511.4,390.4,523.9,394.8,535,391.3z"/>
		<path class="st8" d="M446.5,394.3c2.3,11.5-4.3,21.3-15.4,22.7c-10.3,1.3-18.1-6.7-19.1-19.7C423,390.6,434.8,393,446.5,394.3z"/>
		<path class="st9" d="M535,391.3c-1.6,8.3-8.3,5.8-13.4,5.9c-6.9,0.3-13.9-0.1-20.9-0.2c0.9-9.6,6.6-15.4,15.8-16.5
			C524.9,379.5,532.2,382.1,535,391.3z"/>
		<path class="st10" d="M446.5,394.3c-11.1,6.3-23.1,1.5-34.6,3c-0.1-10.6,6.8-15.8,15.9-16.6C437,379.8,444.2,384.5,446.5,394.3z"
			/>
		<path class="st11" d="M654.7,582.6c19.7,10.2,30.9,29.3,45.5,44.9c-18-11.2-32.2-26.6-46-42.4
			C654.2,584.2,654.4,583.4,654.7,582.6z"/>
		<path class="st12" d="M697.8,571.5c12.1,13,24.3,25.9,39.2,41.9c-18.4-10.4-28.6-24-39.8-36.6
			C697.4,575.1,697.6,573.3,697.8,571.5z"/>
		<path class="st13" d="M625.4,585.6c-2,4.2-3.9,8.3-6.3,13.4c-6-3.5-10.1-8.1-13.7-13.4C612.1,585.6,618.8,585.6,625.4,585.6z"/>
		<path class="st14" d="M535,642.1c5.6,7.7,2.4,14.8-2.9,20.4c-5.1,5.5-12.2,7.1-19.6,4.2c-8.5-3.4-12.4-9.7-11.7-18.9
			C511.4,641,523.9,645.8,535,642.1z"/>
		<path class="st14" d="M446.6,648.1c2.6,12.6-5.4,17.9-15.5,19.6c-10.8,1.8-18.1-6.5-19.2-19.6C423.5,641.6,435,641.6,446.6,648.1z
			"/>
		<path class="st10" d="M446.6,648.1c-11.5,0-23.1,0-34.6,0c0.2-11.3,7.6-16.5,17.3-16.5C439,631.5,446.3,636.8,446.6,648.1z"/>
		<path class="st10" d="M535,642.1c-1.6,8.4-8.3,5.7-13.3,5.9c-6.9,0.3-13.9-0.1-20.8-0.2C508.9,627.7,521.4,625.6,535,642.1z"/>
		<path class="st15" d="M534.9,516.6c5.7,9,2,16.3-5,22c-6.9,5.7-15.1,5.6-22,0c-7-5.7-10.5-13.1-4.9-22
			C513.6,519.6,524.3,519.7,534.9,516.6z"/>
		<path class="st16" d="M446.6,522.7c1.6,13.5-6.8,19.6-18,19.4c-10.6-0.2-18.4-6.6-16.6-19.3C423.5,516.2,435.1,516.3,446.6,522.7z
			"/>
		<path class="st17" d="M446.6,522.7c-11.5,0-23.1,0-34.6,0c0.3-11.2,7.3-16.6,17.3-16.6C439.3,506,446.2,511.5,446.6,522.7z"/>
		<path class="st18" d="M534.9,516.6c-7.5,8.9-24.5,8.9-31.9-0.1C513.3,501.5,524.2,501.6,534.9,516.6z"/>
		<path class="st19" d="M662.9,644.8c-14.7-10.8-27.5-26-40.8-40.9C636.2,618,650.2,632.1,662.9,644.8z"/>
	</g>
</g>
</svg>
