<?xml version="1.0" encoding="utf-8"?>
<!-- Generator: Adobe Illustrator 24.0.2, SVG Export Plug-In . SVG Version: 6.00 Build 0)  -->
<svg version="1.1" id="Layer_1" xmlns="http://www.w3.org/2000/svg" xmlns:xlink="http://www.w3.org/1999/xlink" x="0px" y="0px"
	 viewBox="0 0 1080 1080" style="enable-background:new 0 0 1080 1080;" xml:space="preserve">
<style type="text/css">
	.st0{fill:#FD8B59;}
	.st1{fill:#D9D7DA;}
	.st2{fill:#FEFEFE;}
	.st3{fill:#FCF3E9;}
	.st4{fill:#EBBC83;}
	.st5{fill:#5D5260;}
	.st6{fill:#F6D3AC;}
	.st7{fill:#B1E49E;}
	.st8{fill:#B7B5FE;}
	.st9{fill:#9F9DEE;}
	.st10{fill:#94D4A3;}
	.st11{fill:#FDDF7D;}
	.st12{fill:#6E4848;}
	.st13{fill:#FEC169;}
	.st14{fill:#F6D3AD;}
	.st15{fill:#C7C5C9;}
	.st16{fill:#574B56;}
	.st17{fill:#E1A876;}
	.st18{fill:#877A82;}
	.st19{fill:#7C5757;}
	.st20{fill:#83777F;}
	.st21{fill:#E2A876;}
	.st22{fill:#F1F0EE;}
	.st23{fill:#F0EFF8;}
	.st24{fill:#CFCDF8;}
</style>
<g>
	<g>
		<path class="st0" d="M905.8,722.6c19.7,0.1,39.4,0.3,59.1,0.4c0,12.3,0,24.5,0,36.8c-4.6,12.1-11.9,18.1-25,11.2
			c-9.9-16.4-24.4-21.2-43.3-20.6c-37.8,1.1-75.6,0.5-113.5,0.2c-8.9-0.1-18.5,1.5-25.9-6c-1.8-18,1.7-25.6,16.2-26.4
			c40.8-2.1,81.7-1.8,122.6-0.1C899.7,718.2,903.1,719.8,905.8,722.6z"/>
		<path class="st1" d="M964.9,962.3c-20.2,6.8-23,5.7-27.5-14.8c-12-55.2-23.5-110.5-35.2-165.8c-0.7-3.5-2.4-6.8-3.6-10.3
			c8.8-8.2,18.5-6.5,28.4-2.8c6.8,5.6,6.7,14,8.3,21.6c10.8,51,23.8,101.6,29.5,153.6C964.9,950,964.9,956.1,964.9,962.3z"/>
		<path class="st2" d="M964.9,943.9c-11.9-36.4-17.3-74.3-25.5-111.6c-4.4-20.1-11.7-39.8-11.3-60.9c4.6-5.3,9.6-3.5,14.6-0.9
			c10.3,2.4,15.9-4.7,22.2-10.7C964.9,821.2,964.9,882.5,964.9,943.9z"/>
		<path class="st3" d="M545.4,134.1c0,1.2,0,2.3,0.1,3.5c-6.8,7-15.7,6-24.2,6.1c-53.9,0.2-107.8,0.2-161.7,0
			c-8.4,0-17.4,1-24.1-6.2c0.1-1.1,0.1-2.3,0.1-3.4C405.6,134.1,475.5,134.1,545.4,134.1z"/>
		<path class="st4" d="M744.4,222.1c18.4,1.1,25.5,11.9,25.5,29.2c0,37.3-0.1,74.7,0,112c0.1,14.7-5.6,26.1-20.7,28
			c-15.1,1.9-16.8,10.2-16.8,22.7c0,9.1,5.7,21.9-5.1,26.8c-8.4,3.8-15.3-7.2-20.4-12.8c-29.2-32.8-65.7-41-107.5-36.2
			c-15.7,1.8-31.8,0.3-47.7,0.3c-25.8-0.1-34.8-9-35.3-35.3c-0.4-17.7-0.4-35.5-0.6-53.2c-10.2-22.6-8.1-45.5,0.1-67.7
			c6.2-17,22.1-21.4,38.1-18.7c38.4,6.6,76.9,1.9,115.3,3.4C694.3,221.6,719.4,218.9,744.4,222.1z"/>
		<path class="st5" d="M905.8,722.6c-40.9,0.2-81.8,1.3-122.7,0.3c-17.4-0.5-25.1,4.7-23.3,22.2c5,7.5,2,13.9-3,19.9
			c-7.8,57-15.6,114-23.4,171c-2.5,18.5-6.2,19.8-33.6,18.6c-16-0.7-15-10.7-15-21.5c0.1-76.6,0.4-153.2-0.2-229.7
			c-0.2-28.8,11.3-49.4,36.9-62.3c3.6-5.3,8.9-7.2,14.9-7.6c66.5,0.2,133.1-2,199.6,1.1c2.3,0.9,4.2,2.3,5.7,4.1
			c0,9.2-0.1,18.4,0.1,27.5C942.5,693.2,929.4,711.3,905.8,722.6z"/>
		<path class="st5" d="M361.9,641.1c25.7,12.7,37.1,33.3,36.9,62.1c-0.6,76.5-0.3,153-0.1,229.5c0,11.8,0.4,21.7-16.4,21.9
			c-27.5,0.4-29.6-0.2-32.4-20c-8-57.5-16-115-24-172.5c-3.9-2.6-5-6.7-6.1-10.9c-6-22.5-6-22.6-29.7-22.7
			c-29.4-0.1-58.9,0.1-88.3-0.1c-8.4-0.1-17.4,1.5-24.1-5.8c-16.9-8.9-31-20.2-34.6-40.5c-1.2-8.5-0.5-17.1-0.5-25.6
			c-0.1-21.4,1.4-23.6,22.1-23.8c35.4-0.4,70.9-0.9,106.3,0.3c21.8,0.5,43.7,0.2,65.5,0.2c3.9,0,7.8-0.8,11.7-0.5
			C353.9,633.7,358.1,637.1,361.9,641.1z"/>
		<path class="st6" d="M744.4,222.1c-64.9,0.1-129.8,0.2-194.7,0.3c-22.4,0-32.3,9-33.5,31.6c-0.9,16.5-0.3,33.1-0.4,49.6
			c-20.2,0-40.7,1.9-60.6-0.5c-27.1-3.2-47.1,7.5-65.4,25.3c-7.4,7.2-15.8,13.4-23.9,20c-3.3,2.6-7,5.9-11.5,3.6
			c-4.6-2.3-3.9-7.2-3.9-11.5c-0.1-6.7-0.3-13.5,0-20.2c0.5-10-2.5-15.5-13.9-17.1c-15.1-2.1-23.1-12.2-23.1-28.1
			c0.1-36.2,0.2-72.3,0-108.5c-0.1-15.7,6.2-25.8,22.1-29c70,0,139.9,0.1,209.9,0.1c18.3,5.3,21.3,20,21.7,36
			c1.2,45.5,1.1,45.5,46.1,45.5c37.3,0,74.5-0.1,111.8,0.1C731.5,219.2,738.6,217.2,744.4,222.1z"/>
		<path class="st7" d="M272.5,637.9c-36.6,0-73.2,0.6-109.7-0.4c-14.8-0.4-21.5,3.2-19.6,19c1.1,8.4,0,17-0.1,25.5
			c-4.6-6-2.6-13-2.6-19.5c0.1-54.3,0.2-108.7,0.6-163c0.3-42.4,17.5-70.3,50.5-82.7c7.6-9,15.2-9.6,22.8,0
			c3.9,0.6,8.1,0.4,10.8,4.2c-4.2,5.2-10.9,5.2-16.4,7.6c-20.6,9.2-25.5,31.2-10.7,48.3c8.3,9.6,19.7,13.9,31.1,18.6
			c12.8,5.2,27.4,6.9,37.2,18.2c-3.6,21.4,3.7,42.3,3.1,63.7c-0.3,11.8,8.9,9.3,15.7,9.3c54.9,0.1,109.7,0,164.6-0.1
			c5.2,0.9,4.9,3.1,1.4,6c-8,4-16.6,3.1-25.1,3.1c-41.3,0.1-82.7-0.1-124,0.1c-21.8,0.1-22.5,1-22.8,22.4c0,5.2-1,10.2-3,15
			C275.4,635.2,274.1,636.7,272.5,637.9z"/>
		<path class="st1" d="M361.9,641.1c-5.3,1-8.8-1.1-10.7-6.1c6.7-7.2,15.7-6.2,24.1-6.2c111.6-0.2,223.2-0.2,334.8,0
			c6.7,0,13.5-0.1,19.8,3c2.5,1.3,3.3,3.2,2.3,5.9c-3.6,1.1-7.2,2.2-10.8,3.4c-29.6-5.4-59.5-1.3-89.2-2.2
			c-5.8-0.2-8.3,4.2-10.6,8.7c-8.4,16.1-21.4,28.3-36,38.3c-15.6,10.8-22.1,24.6-22,43.3c0.4,70.3,0.2,140.5,0.2,210.8
			c-17.3,9-34.6,9-51.9-0.1c0-70.5-0.1-140.9,0.2-211.4c0.1-19.3-6.5-34.6-23.3-44.7c-11.8-7.1-21.9-16.4-27.6-28.7
			c-6.8-14.8-17.2-18.2-32.1-16.7C406.9,640.7,384.2,635.5,361.9,641.1z"/>
		<path class="st8" d="M941.7,638.8c-0.9,0.1-1.7,0-2.4-0.4c-30.7-4.3-61.6-0.8-92.3-1.8c-11.5-0.4-23,0.1-34.5-0.2
			c-6.3-2.5-6.3-8.2-7-13.6c-0.2-6.9,0.1-14-1.9-20.8c-0.6-3.9-0.5-7.7,1.2-11.3c21.8-19.5,39-43.4,60.1-63.6
			c13.1-12.6,20.1-28.9,23.2-46.7c3.9-22.7-7.5-37.6-30.5-39.9c-5.4-0.5-11.2,0.2-14.9-5c6.5-14.6,19.7-17.2,33.4-18.8
			c4-2.8,7.9-2.8,11.8,0.1c29.8,2.4,53.2,38,54.2,77.3C943.3,542.3,942,590.5,941.7,638.8z"/>
		<path class="st9" d="M842.7,435.4c37.3,1.4,55.2,14.6,51.4,39.7c-2.3,15.4-5.6,31.4-16.7,43.8C857,541.5,836.7,564,816,586.3
			c-2.2,2.4-6.4,2.9-9.7,4.3c-5.3,5.1-12.1,5.6-18.8,5.7c-47.7,0.3-95.4,0.3-143.2,0c-5.5,0-11-0.6-16-3.5c-2.6-1.6-2.8-3.5-0.7-5.7
			c4.9,0,9.8-0.4,14.7,0.2c15.6,2,25.6-1.6,30.5-19.3c5.2-19.3,21.9-28.6,41-32.4c13.1-2.6,26.5-7,39.6-6.6
			c30.5,1.1,45.1-16,57.1-40.8C819.3,469.8,828.3,450.8,842.7,435.4z"/>
		<path class="st10" d="M266.5,513.9c-18.8-7-38-13.1-56.2-21.4c-20.1-9.2-28.7-26-25.2-44c3.2-16.5,16.7-25.7,40.1-27.4
			c27.5,17,55.2,33.7,82.3,51.3c9,5.9,16.8,7.7,27.2,3.9c17.2-6.3,34.9-11.1,52.5-16.5c11.7-3.6,23.1-3,33.1,4.7
			c7.6,5.8,13.4,14.1,12.9,23.3c-0.5,9.2-11.2,8-17.5,10.3c-19.5,7.1-40.5,11.1-58.9,20.1C325.1,533.8,295.8,530.6,266.5,513.9z"/>
		<path class="st11" d="M627.7,587c-0.4,0.9-0.6,1.8-0.7,2.8c-5.9,7-14.2,6.5-21.9,6.5c-43.3,0.3-86.6,0.3-129.8,0
			c-7.8-0.1-16.1,0.5-21.9-6.7c-1.1-0.9-2.3-1.9-3.4-2.8c4.3-40.7,23.6-70,64.1-81.9c11.7-3.5,8.6-12.9,11.6-20
			c6.3,9.4,16.5,12.6,26.2,16.5C597.2,511.2,620.7,537.7,627.7,587z"/>
		<path class="st0" d="M177.7,722.6c39.8,0.2,79.6,0.5,119.5,0.7c25.1,0.1,25.1,0,27.4,24.4c0.5,4.9,0.9,9.7,1.4,14.6
			c-7.7,7.3-16.6,10.6-27.2,8.3c-15-18.9-35.4-20.9-57.8-20.2c-32.5,1.1-65,0.4-97.5,0.2c-8.5,0-17.4,1.1-24.4-5.6
			c-4.2-17.5,2.3-24.1,20.4-22.1C152.1,724.2,164.9,722.8,177.7,722.6z"/>
		<path class="st1" d="M184.8,771.4C172.5,826.7,160.3,882,148,937.3c-1.2,5.4-2.9,10.7-3.5,16.1c-1,10.4-7.2,13.9-16.4,12.2
			c-11.1-2-10.4-10.7-8.7-18.8c5.3-25,11.6-49.9,16.3-75c6.4-33.5,16.8-66.2,19.6-100.4C165.2,763.4,175,763.4,184.8,771.4z"/>
		<path class="st1" d="M288,771.5c11.5,54.7,23,109.5,34.5,164.2c0.5,2.4,1.9,4.7,1.8,7.1c-0.3,8.5,4.5,20.5-8.8,22.5
			c-12.8,1.9-14.9-8-17.1-18.7c-11.8-58.4-24.3-116.7-36.6-175C270.5,763.8,279.2,763.9,288,771.5z"/>
		<path class="st1" d="M821.6,771.6c-10.3,49.4-20.5,98.8-30.8,148.3c-2.1,10.1-4.6,20.2-6.2,30.4c-1.6,9.8-6.2,16.6-16.7,15.2
			c-11.2-1.5-10.2-11.5-8.9-18.9c5-26.9,10.9-53.6,16.5-80.4c6.6-31.5,13.2-63.1,19.9-94.6C804.2,763.9,812.9,763.8,821.6,771.6z"/>
		<path class="st12" d="M838.9,333.1c12-25.1,29.8-35.1,53.5-30c22.7,4.8,35.3,22.7,35.6,50.2c0.1,12.8,0.7,25.6-4.4,37.7
			c-8.2,6.7-15.9,3.3-23.1-1.6c-7.6-5.1-14.4-11.5-19.8-18.8c-8.5-11.5-17.9-21.3-32-25.9C843.4,343,838.7,339.9,838.9,333.1z"/>
		<path class="st13" d="M821.6,771.6c-8.7,0-17.4-0.1-26.2-0.1c-13.3,0.1-26.3-1.1-38.7-6.5c1-6.7,2-13.3,3-19.9
			c48.4,0,96.8,0.8,145.2-0.5c20.4-0.5,32.9,6,37.7,25.9c-4.9,0.3-9.7,0.6-14.6,0.9c-9.8,0-19.7,0-29.5,0
			C872.9,771.5,847.3,771.6,821.6,771.6z"/>
		<path class="st12" d="M162.8,395.7c-11.1-18.6-8.8-39-5.8-58.6c3-19.4,20.5-32.8,39.8-34.4c22.2-1.7,36.7,7.5,46.5,29.7
			c-24.2,14.2-46.7,29.6-58.6,57.1C181.7,396.3,172.3,401.4,162.8,395.7z"/>
		<path class="st13" d="M288,771.5c-8.7,0-17.4,0.1-26.2,0.1c-25.7-0.1-51.3-0.1-77-0.2c-9.8,0-19.7,0-29.5,0
			c-31.6-1.3-35.7-4.3-36.2-26.4c47.1,0,94.3,0.7,141.4-0.1c19.8-0.3,33.3,5.5,38.3,25.7C295.2,770.8,291.6,771.2,288,771.5z"/>
		<path class="st6" d="M162.8,395.7c14.5,0.3,25.1-9.2,27-20.6c3.9-24.4,22.1-29.8,40-37.2c4.5-1.8,9-3.7,13.5-5.5
			c12.5,36.1,4.4,59.9-28.9,84.6c-7.6-3.7-15.2-3.3-22.8,0C181.6,410.3,169.1,407.2,162.8,395.7z"/>
		<path class="st14" d="M838.9,333.1c25.3,10.2,41.7,31,60.3,49.4c6.3,6.2,13.8,12.6,24.3,8.5c-7.3,15-22,19.6-35.7,25.8
			c-3.9,0-7.9-0.1-11.8-0.1C839.4,404,830.4,383.6,838.9,333.1z"/>
		<path class="st15" d="M512,940c17.3,0,34.6,0,51.9,0.1c10.4,0.2,20.8-0.2,31.2,0.7c7.7,0.7,14.9,4.3,14.1,13.6
			c-0.7,8.7-7,11.9-15.6,11.9c-36.7-0.2-73.4-0.1-110.1-0.1c-8.1,0-15.2-1.8-15-11.7c0.2-8.7,6-13.3,14.2-13.8
			C492.5,939.9,502.3,940.2,512,940z"/>
		<path class="st16" d="M551.8,501.6c-11.8-0.7-28.2,5.9-26.2-16.6c0.7-8.9,4.6-15.8,14.2-15c9.4,0.8,12.4,8.3,12.2,17.1
			C552,491.9,551.9,496.7,551.8,501.6z"/>
		<path class="st17" d="M641.5,266.6c22,0,44,0.1,66,0c8.1,0,15.9,2.4,16.5,10.9c0.7,9.4-7.2,14.4-15.7,14.5
			c-44.6,0.5-89.2,0.4-133.8,0.1c-8.6-0.1-16.7-4.7-16.5-13.8c0.2-9.8,8.9-11.7,17.5-11.7C597.5,266.7,619.5,266.6,641.5,266.6z"/>
		<path class="st17" d="M617.3,321.8c14,0,28.1,0,42.1,0c7.3,0,13.9,1.2,14.4,10.2c0.4,8.7-4.8,14.8-12.8,15
			c-29.9,0.6-59.8,0.5-89.7-0.4c-7.6-0.2-14.5-6.1-13.3-14.6c1-7.3,7.8-10.2,15.3-10.2C588,321.9,602.7,321.8,617.3,321.8z"/>
		<path class="st18" d="M810.1,634.4c36.7,0.2,73.4,0.2,110.1,0.6c6.4,0.1,13.6-2.7,19,3.3c-69-0.2-138.1-0.4-207.1-0.6
			c0.1-0.8,0.2-1.6,0.1-2.4c9.7-9.4,21.9-5.2,33.1-6c7.9-0.5,15.8-0.9,23.8-1C796.4,629.3,804.1,629.2,810.1,634.4z"/>
		<path class="st19" d="M791.6,630.9c-19.3,8.1-39.7,1.2-59.3,4.4c-127-0.1-254.1-0.2-381.1-0.3c-2.8,1.1-5.5,2.2-8.3,3.3
			c-18.1-5.1-36.9,1.3-54.9-3.6c-5.7-2.1-12.9-2.7-11.4-11.7c-1.2-4.7-2.7-9.3-3.6-14c-2.6-13.5,1.3-19.3,16.9-19.1
			c54.5,0.8,109,0,163.5-0.2c57.9,0,115.8,0.1,173.6,0.1c59.8,0.2,119.5,0.5,179.3,0.7c0.3,3.7,0.7,7.5,1.1,11.2
			c2.3,6.6,0.8,12.9-1.1,19.2C803.2,626.9,800.2,633.2,791.6,630.9z"/>
		<path class="st20" d="M287.3,631.3c11.4,5.3,23.5,2.6,35.3,3.5c6.8,0.5,14.5-2.9,20.3,3.5c-23.5-0.1-47-0.2-70.4-0.4
			c0.4-1,0.6-2,0.7-3C276.8,629.6,282.6,632.7,287.3,631.3z"/>
		<path class="st17" d="M436.8,178.2c20.8,0,41.7,0.3,62.5-0.1c9.9-0.2,18.2,2.5,17.9,13.3c-0.3,9.7-9,12.4-17.5,12.4
			c-42.9,0.2-85.8,0.1-128.7,0.1c-9.4,0-18.6-3.3-19-13.3c-0.4-11.1,9.4-12.4,18.6-12.4C392.7,178.2,414.8,178.2,436.8,178.2z"/>
		<path class="st21" d="M409.4,259c-13.4,0-26.9,0.3-40.3-0.1c-8.7-0.2-16.8-4.2-17.1-13.3c-0.3-9.9,8.1-12.3,16.9-12.3
			c28.1,0,56.2,0,84.3,0c7.2,0,14.1,1.2,14.6,10.1c0.6,9.7-5.4,15-14.4,15.4C438.7,259.5,424,259,409.4,259z"/>
		<path class="st22" d="M287.3,631.3c-3.4,6.5-9.2,3.1-14.1,3.6c0.2-4.3-1.3-9,3.4-11.9C280.1,625.8,283.7,628.6,287.3,631.3z"/>
		<path class="st23" d="M791.6,630.9c5.7-1.9,8.6-6.8,12.1-11.1c2.2-1.8,4.4-2.1,6.4,0.3c0,4.8,0,9.5,0,14.3
			C803.8,634.1,796.6,638.5,791.6,630.9z"/>
		<path class="st24" d="M810.1,620.2c-2.1-0.1-4.3-0.2-6.4-0.3c1.2-6,2.4-12,3.7-18C812.3,607.3,809.8,613.9,810.1,620.2z"/>
	</g>
</g>
</svg>
