<?xml version="1.0" encoding="utf-8"?>
<!-- Generator: Adobe Illustrator 24.0.2, SVG Export Plug-In . SVG Version: 6.00 Build 0)  -->
<svg version="1.1" id="Layer_1" xmlns="http://www.w3.org/2000/svg" xmlns:xlink="http://www.w3.org/1999/xlink" x="0px" y="0px"
	 viewBox="0 0 1080 1080" style="enable-background:new 0 0 1080 1080;" xml:space="preserve">
<style type="text/css">
	.st0{fill:#FEFEFE;}
	.st1{fill:#0189B1;}
	.st2{fill:#FEC007;}
	.st3{fill:#F34336;}
	.st4{fill:#455A64;}
	.st5{fill:#F5602B;}
	.st6{fill:#FAEAC9;}
	.st7{fill:#FAEDC5;}
	.st8{fill:#F9F9F9;}
	.st9{fill:#F9F7F7;}
	.st10{fill:#F9F8F8;}
	.st11{fill:#F5F6F6;}
	.st12{fill:#F3F4F4;}
</style>
<g>
	<g>
		<path class="st0" d="M0.1,540.1c0-178.5,0-356.9-0.1-535.4C0,0.5,1.1,0,5,0c356.7,0.1,713.5,0.1,1070.2,0c4.1,0,4.8,0.9,4.8,4.9
			c-0.1,356.6-0.1,713.1,0,1069.7c0,4.7-1.3,5.4-5.6,5.4c-356.6-0.1-713.1-0.1-1069.7,0c-3.6,0-4.7-0.6-4.7-4.5
			C0.1,897,0.1,718.6,0.1,540.1z"/>
	</g>
</g>
<path class="st1" d="M912,533.6c-4.7,206.2-152.8,333.1-298.5,361.6c-120.4,23.5-230.9-6.2-321.7-87.4
	C210.5,735.1,167.9,640.3,168.3,529c0.8-209.7,168.1-359.5,331.1-373.9c64.2-5.7,126,3.1,185.2,26.3c67.3,26.3,118.6,75.2,159.8,132
	C891.3,378.1,913.8,452.8,912,533.6z"/>
<path class="st0" d="M511.7,183c213.3-20,355,159.8,370.7,303c11,100.1-15.5,189.4-79.7,266.2c-60.4,72.3-139.5,112.7-233.4,120.6
	c-97.5,8.2-183.6-20.9-257.1-85.6c-74.5-65.6-114.1-149.8-116.4-247.7C191.3,345.2,343.8,193.3,511.7,183z"/>
<path class="st2" d="M549.8,421.1c22.1,0.1,44.2,0,66.3,0.2c18.9,0.2,23,4.4,23.1,23.6c0.1,11.8,0.1,23.5,0.1,35.3
	c3.2,4.2,3.3,9.1,3.3,14c0.1,31.4,0.1,62.8,0,94.1c0,4.9,0,9.9-3.3,14.1c-6.9,5.2-15,4.2-22.8,4.2c-51.8-0.1-103.5,0.6-155.3-0.4
	c-10.5,0.6-21,0.3-31.5,0.1c-23.9,0.1-47.8,0.6-71.7,0.2c-6.7-0.1-13.9,0.7-19.2-4.9c-0.1-27.3-0.1-54.6-0.2-81.9
	c0.7-1.6,1.9-2.2,3.6-2c11,3,20.6,9.6,31.4,13.2c78.6,26.3,154.5-28.8,168-96.1c0.7-3.4,1.1-6.8,2.7-10
	C545.4,422.7,547.6,421.9,549.8,421.1z"/>
<path class="st3" d="M337.9,480.2c-37.3-47.2-39.3-98.5-5.4-139.7c28.1-34.2,74.9-47.1,117-32.2c41.8,14.8,69.8,54.5,69.8,99
	c0,4.4,0,8.9,0,13.3c1.1,1.2,1.7,2.6,1.6,4.2c-15.7,83.3-111.2,118.2-177,64.7C341,487,340.4,483,337.9,480.2z"/>
<path class="st3" d="M731.5,482.7c7.4-0.7,10.3,4.8,13.4,9.8c13.6,22.4,26.9,44.8,40.6,67.1c3.5,5.8,4.6,11.7,4.5,18.3
	c-0.2,18.3-0.1,36.5-0.1,54.8c0,30-1.5,31.5-32.2,31.1c-4.2-4.3-1.5-9.4-1.6-14.1c-1-26.5-24.2-47.3-48.8-43.4
	c-17.6,2.8-32.4,21.6-34.3,43.2c-0.5,5.1,3.3,12.9-6.8,13.3c-29-0.1-30.4-0.2-28.7-28.9c2.7-47.4,2.3-94.7,2.4-142.1
	c0-6.1,0.6-10.5,8.6-10.3C676.1,482.5,703.8,480.3,731.5,482.7z"/>
<path class="st4" d="M670.5,661.4c-4.5-31.8,13.4-56.7,40-60.2c29.8-3.9,57.8,33.8,47.2,62.7c-23.4,40.4-62.1,40.4-86.8,0
	c-0.9-0.4-1.3-0.9-1.1-1.5C670,661.7,670.2,661.4,670.5,661.4z"/>
<path class="st4" d="M430.4,601.9c9.4,0.1,18.9,0.1,28.3,0.2c25.1,8.6,39,34.5,31.5,58.6c-1,1.1-2.1,2.3-3.1,3.4
	c-23.5,40-62.4,40-86.6-0.1C387.7,640.5,402.8,609.1,430.4,601.9z"/>
<path class="st3" d="M430.4,601.9c-23.7,14.1-36,33.7-30,62.1c-14.8,0.1-29.5,0.2-44.3,0.2c-12.1,0-18.1-6.4-18.1-18.3
	c0.1-14.7,0.4-29.5,0.6-44.2C369.3,601.8,399.8,601.8,430.4,601.9z"/>
<path class="st5" d="M487.1,664.1c-0.2-1,0-1.9,0.6-2.7c6.3-5.2,13.8-4.7,21.2-4.7c35.6-0.1,71.2,0.1,106.9-0.1
	c16.6-0.1,17.3-1.3,18.1-17.7c0.6-12.6-3.2-25.8,4.5-37.6c0.3-40.4,0.6-80.7,1-121.1c25.5,0.3,50.9,0.5,76.4,0.9
	c5.3,0.1,10.8-1.3,15.8,1.6c-25.2,0.1-50.4,1-75.6,0.1c-12.3-0.4-14.8,4.1-14.7,15.3c0.5,47.9,0.2,95.7,0.2,143.6
	c0,19.6,0,19.6,20.2,19.7c3,0,5.9,0,8.9,0c0.5,0.8,0.6,1.6,0.5,2.5C609.6,664,548.4,664.1,487.1,664.1z"/>
<path class="st6" d="M337.9,480.2c2,1.9,4.1,3.8,6.1,5.7c0.9,11.4,4.5,23.1-3.5,33.5c-0.6,0.3-1.3,0.4-2,0.3
	C338.3,506.6,338.1,493.4,337.9,480.2z"/>
<path class="st7" d="M518.7,423.4c-0.4-1-0.2-1.9,0.5-2.7c10.2,0.1,20.4,0.3,30.6,0.4c-1,0.9-2.1,1.8-3.1,2.6
	C537.3,429.4,527.9,430.5,518.7,423.4z"/>
<path class="st3" d="M638.3,601.3c0,15.3-0.5,30.7,0.3,46c0.6,11.1-3.2,14.4-14.3,14.3c-45.6-0.6-91.1-0.2-136.7-0.2
	c6.3-27.5-8.5-44.8-28.9-59.3C518.5,601.8,578.4,601.6,638.3,601.3z"/>
<path class="st8" d="M518.7,423.4c9.3,0.1,18.6,0.3,28,0.4c-7,87.3-106,143-188.2,105.7c-6.2-2.8-12-6.7-18-10
	c2.3-11.1-3.2-22.9,3.5-33.5c51.9,41.6,117.2,28.4,151.1-12.3C507.4,458.8,513.5,441.4,518.7,423.4z"/>
<path class="st9" d="M398.9,385.5c0-9.4-0.5-16.8,0.1-24.2c0.7-8.5,5.9-13.9,14.4-14.2c8.5-0.3,15.8,5,15.1,13.1
	c-2.7,27.9,4.5,50.7,27.6,68.3c5.9,4.5,4.2,13-1.5,18.6c-5.6,5.5-13.6,6.7-18.9,1.5C417.4,430.5,389.7,417.2,398.9,385.5z"/>
<path class="st10" d="M757.5,571.6c-29,0-55.1,0-81.1,0c-4.8,0-7.4-2-7.4-7c0-15.3,0.1-30.7-0.1-46c-0.1-6,3.3-7.6,8.5-7.5
	c12.4,0.1,24.8,0.1,37.1,0c3.7,0,6.9,0.9,8.9,4.2C734.3,533.3,745.2,551.3,757.5,571.6z"/>
<path class="st11" d="M729.4,648.8c-1.2,9.3-6.5,15.1-15.7,14.6c-8.3-0.4-13.7-5.8-13.5-14.7c0.2-8.7,5-14,13.8-14.3
	C723.6,634.1,728,640,729.4,648.8z"/>
<path class="st12" d="M458.9,648.1c-0.9,9.3-5.8,15.2-14.8,15.3c-8.1,0.1-14-4.6-14.5-13.4c-0.5-9.2,4.1-15,13.5-15.6
	C452.7,633.8,457,639.8,458.9,648.1z"/>
</svg>
